<svg width="110" height="110" viewBox="0 0 110 110" fill="none" xmlns="http://www.w3.org/2000/svg">
<path d="M75.7029 16.0927L79.7382 11.252L89.279 19.072M75.7029 16.0927L69.1336 17.6853M75.7029 16.0927L85.1687 24.0518M69.1336 17.6853L38.7182 54.3768M69.1336 17.6853L88.9624 34.0187M38.7182 54.3768L18.8812 59.1042M38.7182 54.3768L42.6369 57.8093M18.8812 59.1042L14.3751 64.2363C17.2232 67.7533 23.4864 74.1845 32.3813 81.0629M18.8812 59.1042C20.1651 60.9131 22.9849 63.2955 25.7825 65.9303M58.3817 90.7293L56.0675 96.0344C49.4275 92.7051 43.3807 88.9788 38.0488 85.2386M58.3817 90.7293L59.7354 70.7883M58.3817 90.7293C55.7347 89.0313 52.3732 86.7975 48.7263 84.2656M59.7354 70.7883L88.9624 34.0187M59.7354 70.7883L55.2281 67.72M88.9624 34.0187L89.1016 27.3587M89.1016 27.3587L93.176 22.266L89.279 19.072M89.1016 27.3587L85.1687 24.0518M42.8658 80.1075L38.0488 85.2386M42.8658 80.1075C40.9741 78.7348 39.0672 77.3195 37.197 75.8904M42.8658 80.1075C44.8562 81.5518 46.8299 82.949 48.7263 84.2656M38.0488 85.2386C36.0578 83.842 34.1666 82.4434 32.3813 81.0629M32.3813 81.0629C33.6092 79.5195 36.2915 76.3242 37.197 75.8904M37.197 75.8904C32.8602 72.5765 29.0795 69.0355 25.7825 65.9303M25.7825 65.9303L42.6369 57.8093M42.6369 57.8093L55.2281 67.72M48.7263 84.2656L55.2281 67.72M89.279 19.072L85.1687 24.0518" stroke="#FDEAC3" stroke-width="2"/>
<path d="M55.2572 67.5478L84.7883 30.6392L82.9894 29.2534L53.6539 66.2682L55.2572 67.5478Z" stroke="#FDEAC3" stroke-width="2"/>
</svg>
