<svg width="427" height="59" viewBox="0 0 427 59" fill="none" xmlns="http://www.w3.org/2000/svg">
<path d="M238.285 21.5669C238.285 13.9455 240.35 8.45919 244.481 5.10795C248.611 1.70265 254.512 0 262.183 0C269.746 0 275.593 1.56752 279.724 4.70256C283.908 7.83759 286 13.0266 286 20.2696V22.5398H249.711V24.1614C249.711 28.0532 250.757 30.8909 252.849 32.6747C254.994 34.4043 258.106 35.2692 262.183 35.2692C265.723 35.2692 268.459 34.7827 270.39 33.8098C272.375 32.7828 273.716 31.2152 274.413 29.1072H285.758C284.632 33.9179 282.057 37.4313 278.034 39.6474C274.064 41.8636 268.781 42.9716 262.183 42.9716C254.512 42.9716 248.611 41.3501 244.481 38.1069C240.35 34.8097 238.285 29.2964 238.285 21.5669ZM262.183 7.54031C258.481 7.54031 255.531 8.24298 253.332 9.64835C251.132 10.9997 249.925 13.2969 249.711 16.54H274.654C274.494 13.2969 273.394 10.9997 271.355 9.64835C269.371 8.24298 266.313 7.54031 262.183 7.54031Z" fill="#E6F771"/>
<path d="M163.379 1.05404H174.966V33.3233H190.736V1.05404H202.323V33.3233H218.174V1.05404H229.761V41.9176H163.379V1.05404Z" fill="#E6F771"/>
<path d="M140.833 26.9181C139.063 27.1343 137.105 27.3235 134.959 27.4856C132.814 27.6478 130.614 27.7289 128.361 27.7289C121.066 27.7289 115.809 26.4587 112.591 23.9182C109.372 21.3777 107.763 16.8914 107.763 10.4592V1.05404H119.35V9.8916C119.35 13.5672 120.261 16.0265 122.085 17.2697C123.963 18.513 127.074 19.1346 131.419 19.1346C133.082 19.1346 134.745 19.0805 136.408 18.9724C138.124 18.8102 139.6 18.6481 140.833 18.4859V1.05404H152.42V41.9176H140.833V26.9181Z" fill="#E6F771"/>
<path d="M59.7501 49.7012H64.8193C67.2868 49.7012 69.1107 49.3498 70.2908 48.6471C71.4709 47.9445 72.5974 46.458 73.6703 44.1878L74.4749 42.4041L53.6348 1.05404H65.7044L80.1878 30.5666L94.2689 1.05404H104.89L83.2454 46.2148C81.0997 50.6471 78.8467 53.7281 76.4865 55.4577C74.1262 57.2415 70.7736 58.1333 66.4285 58.1333H59.7501V49.7012Z" fill="#E6F771"/>
<path d="M0 41.9176V32.1882H1.20695C2.49437 32.1882 3.56722 31.999 4.4255 31.6207C5.33742 31.2423 6.03477 30.5396 6.51755 29.5126C7.05397 28.4856 7.42947 27.0803 7.64404 25.2965C7.85861 23.4587 7.96589 21.1345 7.96589 18.3238V1.05404H48.2781V41.9176H36.6109V9.64836H18.5871V18.567C18.5871 23.1074 18.3189 26.8911 17.7824 29.918C17.2997 32.8909 16.4414 35.2692 15.2076 37.0529C13.9738 38.8366 12.3109 40.1069 10.2189 40.8636C8.18046 41.5663 5.63245 41.9176 2.57483 41.9176H0Z" fill="#E6F771"/>
<path d="M410.199 36.1733C410.199 34.7073 410.675 33.5706 411.627 32.7632C412.579 31.9346 414.23 31.4671 416.579 31.3609L423.415 31.1059V30.596C423.415 29.1725 423.02 28.1526 422.23 27.5365C421.46 26.8991 420.275 26.5804 418.675 26.5804C417.379 26.5804 416.326 26.7822 415.516 27.1859C414.726 27.5683 414.22 28.2482 413.997 29.2256H410.716C410.959 27.5896 411.738 26.3573 413.055 25.5286C414.371 24.6788 416.245 24.2538 418.675 24.2538C421.369 24.2538 423.374 24.7638 424.691 25.7836C426.028 26.7822 426.696 28.3863 426.696 30.596V40.5077H423.567V37.6393C423 38.6804 422.098 39.4878 420.863 40.0615C419.648 40.6139 418.179 40.8901 416.458 40.8901C414.23 40.8901 412.63 40.4652 411.657 39.6153C410.685 38.7654 410.199 37.6181 410.199 36.1733ZM413.511 36.1414C413.511 36.9276 413.814 37.5225 414.422 37.9262C415.03 38.3299 415.982 38.5317 417.278 38.5317C418.108 38.5317 418.898 38.4467 419.648 38.2767C420.397 38.1068 421.045 37.8412 421.592 37.48C422.159 37.0975 422.605 36.6089 422.929 36.014C423.253 35.419 423.415 34.686 423.415 33.8149V33.1138L417.247 33.3687C415.971 33.4325 415.03 33.6449 414.422 34.0061C413.814 34.3673 413.511 34.9622 413.511 35.7909V36.1414Z" fill="#909FAD"/>
<path d="M392.013 40.5077V30.7554C392.013 29.1194 391.658 28.0358 390.949 27.5046C390.24 26.9734 389.268 26.7078 388.033 26.7078C386.777 26.7078 385.734 27.0159 384.903 27.6321C384.073 28.2482 383.658 29.3212 383.658 30.851V40.5077H380.377V24.6044H383.536V27.4409C384.022 26.3573 384.782 25.5605 385.815 25.0506C386.868 24.5194 388.012 24.2538 389.248 24.2538C390.686 24.2538 391.881 24.5194 392.833 25.0506C393.785 25.5605 394.463 26.3891 394.868 27.5365C395.334 26.4316 396.104 25.6136 397.177 25.0825C398.271 24.53 399.507 24.2538 400.884 24.2538C402.869 24.2538 404.367 24.7531 405.38 25.7517C406.413 26.7291 406.93 28.312 406.93 30.5004V40.5077H403.648V30.7554C403.648 29.1194 403.284 28.0358 402.555 27.5046C401.846 26.9734 400.874 26.7078 399.638 26.7078C398.423 26.7078 397.39 27.0053 396.539 27.6002C395.709 28.1951 395.294 29.2787 395.294 30.851V40.5077H392.013Z" fill="#909FAD"/>
<path d="M359.582 36.1733C359.582 34.7073 360.058 33.5706 361.01 32.7632C361.962 31.9346 363.613 31.4671 365.962 31.3609L372.798 31.1059V30.596C372.798 29.1725 372.403 28.1526 371.613 27.5365C370.844 26.8991 369.659 26.5804 368.059 26.5804C366.762 26.5804 365.709 26.7822 364.899 27.1859C364.109 27.5683 363.603 28.2482 363.38 29.2256H360.099C360.342 27.5896 361.122 26.3573 362.438 25.5286C363.755 24.6788 365.628 24.2538 368.059 24.2538C370.752 24.2538 372.758 24.7638 374.074 25.7836C375.411 26.7822 376.079 28.3863 376.079 30.596V40.5077H372.95V37.6393C372.383 38.6804 371.482 39.4878 370.246 40.0615C369.031 40.6139 367.562 40.8901 365.841 40.8901C363.613 40.8901 362.013 40.4652 361.041 39.6153C360.068 38.7654 359.582 37.6181 359.582 36.1733ZM362.894 36.1414C362.894 36.9276 363.198 37.5225 363.805 37.9262C364.413 38.3299 365.365 38.5317 366.661 38.5317C367.491 38.5317 368.281 38.4467 369.031 38.2767C369.78 38.1068 370.428 37.8412 370.975 37.48C371.542 37.0975 371.988 36.6089 372.312 36.014C372.636 35.419 372.798 34.686 372.798 33.8149V33.1138L366.631 33.3687C365.355 33.4325 364.413 33.6449 363.805 34.0061C363.198 34.3673 362.894 34.9622 362.894 35.7909V36.1414Z" fill="#909FAD"/>
<path d="M352.841 17.2433H356.122V40.5086H352.841V17.2433Z" fill="#909FAD"/>
<path d="M332.347 32.572C332.347 29.6187 333.087 27.494 334.565 26.1979C336.064 24.9019 338.16 24.2538 340.854 24.2538C343.568 24.2538 345.664 24.87 347.143 26.1023C348.642 27.3134 349.391 29.2787 349.391 31.9983V32.8269H335.598V33.4962C335.598 35.2172 336.044 36.4814 336.935 37.2888C337.846 38.0961 339.153 38.4998 340.854 38.4998C342.292 38.4998 343.426 38.2874 344.257 37.8624C345.107 37.4163 345.685 36.7364 345.988 35.8227H349.239C348.794 37.565 347.852 38.8504 346.414 39.679C344.976 40.4864 343.122 40.8901 340.854 40.8901C338.16 40.8901 336.064 40.2527 334.565 38.9779C333.087 37.6818 332.347 35.5465 332.347 32.572ZM340.854 26.5804C339.335 26.5804 338.099 26.9097 337.147 27.5683C336.196 28.2057 335.679 29.3 335.598 30.851H346.14C346.059 29.3 345.583 28.2057 344.712 27.5683C343.841 26.9097 342.555 26.5804 340.854 26.5804Z" fill="#909FAD"/>
<path d="M306 32.6038C306 29.693 306.709 27.579 308.126 26.2617C309.564 24.9231 311.732 24.2538 314.628 24.2538C317.018 24.2538 318.902 24.6681 320.279 25.4968C321.676 26.3042 322.507 27.6002 322.77 29.3849H319.459C319.195 28.4076 318.679 27.7171 317.909 27.3134C317.16 26.8884 316.066 26.676 314.628 26.676C312.805 26.676 311.468 27.069 310.618 27.8552C309.767 28.6201 309.342 29.8736 309.342 31.6159V33.5281C309.342 35.3341 309.797 36.6089 310.709 37.3525C311.62 38.0749 312.927 38.4361 314.628 38.4361C316.127 38.4361 317.251 38.213 318 37.7668C318.75 37.2994 319.256 36.6407 319.519 35.7909H322.831C322.527 37.4694 321.697 38.7442 320.34 39.6153C318.983 40.4652 317.079 40.8901 314.628 40.8901C311.833 40.8901 309.696 40.2846 308.218 39.0735C306.739 37.8412 306 35.6846 306 32.6038Z" fill="#909FAD"/>
</svg>
