<svg width="100" height="62" viewBox="0 0 100 62" fill="none" xmlns="http://www.w3.org/2000/svg">
<path d="M93.9257 0.50685C95.4889 0.519407 96.5623 0.548545 96.954 0.604506C98.4505 0.818379 99.292 1.42928 99.5917 2.26955C99.8739 3.06138 99.6018 3.87235 99.3114 4.35646L99.2919 4.39064L99.2665 4.42091C92.0119 13.0931 81.4235 25.9027 72.1786 36.9697C67.5596 42.4993 63.2802 47.5893 59.9296 51.4971C56.5935 55.3878 54.1469 58.1451 53.2148 58.9736C51.3842 60.6008 49.8603 61.2284 48.6454 61.044C47.3806 60.8518 46.6738 59.8264 46.3974 58.7207L46.3896 58.6895L46.3866 58.6572L43.9687 37.8643C36.0529 41.8168 20.0459 49.717 14.58 52.0596C11.7802 53.2595 10.0467 53.6873 8.8544 53.5596C8.23335 53.493 7.75974 53.2767 7.371 52.9561C6.99656 52.6472 6.71789 52.2538 6.46671 51.877L6.44131 51.8389L6.42374 51.7969C5.67379 50.047 4.13718 46.4795 2.74112 43.2881L1.42569 40.3027C0.425534 38.0544 0.178553 36.5655 0.965729 35.3848C1.34111 34.8217 1.91936 34.385 2.61124 33.9746C3.30316 33.5643 4.17141 33.1459 5.15811 32.6524L5.1669 32.6475L35.0819 18.4268C32.256 15.0721 26.7829 8.58484 24.5028 5.92482C23.8844 5.20327 23.4858 4.58948 23.2675 4.06349C23.0492 3.53757 22.9952 3.0572 23.1337 2.64162C23.2752 2.21727 23.5871 1.95146 23.912 1.79982C24.2262 1.6532 24.5734 1.60085 24.872 1.59962L34.4071 1.3965C44.7833 1.18145 57.2898 0.940849 68.3876 0.762709C75.7859 0.643954 82.5595 0.552568 87.6591 0.516615C90.2086 0.498641 92.3416 0.494125 93.9257 0.50685ZM87.6659 1.51662C82.5708 1.55254 75.8006 1.64299 68.4032 1.76173C53.6087 1.99921 36.3095 2.34964 24.8935 2.59962H24.8827C24.6838 2.59963 24.4856 2.63574 24.3349 2.70607C24.1911 2.77316 24.1155 2.85742 24.0819 2.95802C24.0455 3.0675 24.0286 3.28738 24.1913 3.6797C24.3543 4.07235 24.6812 4.59618 25.2626 5.27443C27.6644 8.07657 33.5994 15.1113 36.2655 18.2774L36.6825 18.7735L36.0976 19.0508L5.6044 33.5459L5.60538 33.5469C4.59267 34.0534 3.77276 34.4475 3.121 34.834C2.46933 35.2205 2.04739 35.565 1.79776 35.9395C1.33488 36.6338 1.33822 37.6451 2.33975 39.8965L3.65714 42.8858C5.04346 46.0549 6.56634 49.5928 7.32315 51.3584C7.56142 51.7137 7.76533 51.9846 8.00772 52.1846C8.24379 52.3792 8.53245 52.5195 8.96085 52.5654C9.86854 52.6627 11.3854 52.3397 14.1855 51.1397C19.7685 48.7469 36.4861 40.4889 44.1591 36.6524L44.7968 36.334L47.3749 58.5059C47.6016 59.3844 48.093 59.9489 48.7958 60.0557C49.5558 60.1709 50.7819 59.7978 52.5507 58.2256C53.4188 57.4538 55.8103 54.765 59.1708 50.8457C62.517 46.9431 66.7937 41.8577 71.412 36.3291C80.629 25.2954 91.2232 12.476 98.4677 3.81544C98.668 3.46839 98.7882 2.99514 98.6493 2.60548C98.524 2.2542 98.1155 1.78095 96.8124 1.59474C96.5041 1.5507 95.5153 1.51968 93.9179 1.50685C92.3412 1.49418 90.2137 1.49865 87.6659 1.51662Z" fill="#E8F879"/>
</svg>
