<svg width="487" height="524" viewBox="0 0 487 524" fill="none" xmlns="http://www.w3.org/2000/svg">
<path d="M244.385 365.359L246.375 355.784L247.353 356.02L244.898 367.828L277.264 523.588L276.776 523.705L276.287 523.822L244.385 370.298L212.479 523.842L211.502 523.607L243.872 367.828L241.414 356L242.392 355.765L244.385 365.359ZM222.065 353.628L222.523 353.839L151.361 518.334L150.443 517.91L221.607 353.416L222.065 353.628ZM338.322 517.891L337.404 518.314L266.242 353.819L266.701 353.607L267.158 353.396L338.322 517.891ZM486.141 509.572L485.539 510.371L280.539 356.205L281.141 355.406L486.141 509.572ZM207.3 355.996L1.2998 510.364L0.700195 509.563L206.7 355.195L207.3 355.996ZM486.07 439.729L485.84 440.172L485.609 440.616L280.609 334.399L280.84 333.956L281.07 333.512L486.07 439.729ZM207.229 334.161L1.22949 440.518L0.770508 439.629L206.771 333.272L207.229 334.161ZM485.983 368.68L485.84 369.159L485.696 369.638L280.696 308.336L280.84 307.856L280.983 307.378L485.983 368.68ZM207 307.584L207.143 308.062L1.14258 369.445L1 368.966L0.857422 368.487L206.857 307.104L207 307.584ZM485.9 307.36L485.84 307.856L485.779 308.354L280.779 283.468L280.9 282.476L485.9 307.36ZM207 282.666L207.06 283.162L1.05957 308.08L1 307.584L0.94043 307.087L206.939 282.17L207 282.666ZM485.84 259.472H280.84V258.472H485.84V259.472ZM207 259.464H1V258.464H207V259.464ZM207.06 235.432L206.94 236.424L0.94043 211.539L1 211.043L1.05957 210.546L207.06 235.432ZM485.84 210.546L485.9 211.042L280.9 235.86L280.84 235.364L280.779 234.867L485.779 210.049L485.84 210.546ZM207.143 210.563L207 211.043L206.857 211.521L0.857422 150.22L1 149.74L1.14258 149.262L207.143 210.563ZM485.84 149.407L485.982 149.887L280.982 211.024L280.84 210.546L280.697 210.066L485.697 148.929L485.84 149.407ZM207.229 184.499L206.771 185.388L0.770508 79.1719L1.22949 78.2832L207.229 184.499ZM486.069 79.0283L281.069 184.961L280.61 184.072L485.61 78.1396L486.069 79.0283ZM207.3 162.693L206.7 163.494L0.700195 9.32812L1.2998 8.52734L207.3 162.693ZM486.14 9.37207L281.14 163.125L280.84 162.725L280.54 162.325L485.54 8.57129L486.14 9.37207ZM224.508 137.208L224.067 137.445L223.627 137.682L152.465 5.48926L153.344 5.01465L224.508 137.208ZM340.305 5.47363L269.143 137.666L268.703 137.43L268.262 137.192L339.426 4.99902L340.305 5.47363ZM278.778 0.734375L279.262 0.858398L246.898 126.015L249.35 135.492L248.865 135.617L248.382 135.742L246.382 128.011L244.388 135.727L243.421 135.477L245.866 126.016L213.508 0.874023L213.991 0.75L214.476 0.625L246.383 124.02L278.294 0.609375L278.778 0.734375Z" fill="#000"/>
</svg>
