<svg width="88" height="75" viewBox="0 0 88 75" fill="none" xmlns="http://www.w3.org/2000/svg">
<path d="M84.021 19.5403L58.3119 41.4405C61.7073 43.8091 69.2588 49.0672 72.3017 51.1506C75.3446 53.234 74.1735 54.2725 73.2075 54.5313C51.2816 60.9239 6.72782 73.7938 3.9197 74.1322C1.11158 74.4705 0.944111 72.6864 1.21139 71.752C10.7311 51.2564 28.8893 11.2261 31.5385 7.20342C34.1876 3.18071 36.3334 3.84807 37.3339 5.65047L45.3133 25.7708C51.7266 20.0838 65.7502 7.76794 70.5382 4.00033C75.3262 0.232719 76.4286 0.869168 77.7827 2.05919C79.3525 4.05419 83.1105 8.81085 85.5888 11.8732C88.687 15.7017 87.3659 16.5735 84.021 19.5403Z" stroke="#E8F879"/>
</svg>
