<svg width="68" height="92" viewBox="0 0 68 92" fill="none" xmlns="http://www.w3.org/2000/svg">
    <path d="M34.2242 90.9538C16.3761 90.9241 1.02486 76.4298 1.05457 58.5818C1.07 49.3095 5.06746 40.4905 12.0304 34.3674L22.6133 25.0611C29.4878 19.0158 33.7444 10.1714 34.3738 1.05529L36.3281 1.05854C42.2124 8.65015 44.0993 18.0508 44.3416 26.2902C44.6238 35.8867 52.3957 45.1186 61.9598 44.2821L64.0454 44.0997C66.3004 48.5767 67.5089 53.5673 67.5004 58.6924C67.4707 76.5404 52.0722 90.9835 34.2242 90.9538ZM34.2242 90.9538C42.623 90.9678 49.8683 84.0615 49.8825 75.5273C49.8899 71.0937 48.0227 66.8705 44.7558 63.9318L39.7904 59.4652C36.237 55.7794 35.2663 51.8784 35.2663 51.8784L33.312 51.8751C33.312 51.8751 32.3284 55.7729 28.7597 59.4468L23.7796 63.8969C20.5029 66.8247 18.6217 71.0417 18.6143 75.4753C18.6001 84.0095 25.8253 90.9398 34.2242 90.9538Z" stroke="#E8F879"/>
</svg>
