<svg width="283" height="336" viewBox="0 0 283 336" fill="none" xmlns="http://www.w3.org/2000/svg">
    <rect x="121" y="107.864" width="160" height="24" rx="6" transform="rotate(-8.57774 121 107.864)" fill="#2B2B2B"/>
    <path d="M131.555 123.464L133.65 113.946L135.513 113.664L140.393 122.131L138.51 122.415L137.437 120.493L133.819 121.039L133.387 123.188L131.555 123.464ZM134.016 119.557L136.799 119.137L134.834 115.699L134.016 119.557ZM147.535 121.251C146.836 121.357 146.202 121.308 145.633 121.104C145.062 120.897 144.591 120.56 144.218 120.095C143.85 119.629 143.615 119.058 143.513 118.381C143.438 117.884 143.452 117.415 143.557 116.974C143.666 116.532 143.851 116.136 144.114 115.785C144.38 115.43 144.708 115.137 145.099 114.907C145.494 114.677 145.939 114.524 146.436 114.449C146.976 114.368 147.473 114.391 147.926 114.52C148.379 114.645 148.771 114.859 149.102 115.165C149.436 115.465 149.694 115.838 149.875 116.284C150.06 116.725 150.151 117.224 150.147 117.781L145.121 118.539C145.168 118.878 145.291 119.162 145.492 119.39C145.698 119.618 145.963 119.781 146.29 119.881C146.619 119.976 146.992 119.992 147.408 119.929C147.776 119.874 148.122 119.767 148.444 119.609C148.766 119.451 149.057 119.245 149.317 118.991L150.069 120.054C149.892 120.247 149.663 120.426 149.381 120.592C149.099 120.757 148.796 120.897 148.472 121.011C148.151 121.125 147.839 121.205 147.535 121.251ZM145.041 117.355L148.377 116.852C148.298 116.421 148.104 116.104 147.793 115.901C147.481 115.694 147.079 115.627 146.586 115.702C146.098 115.775 145.714 115.96 145.434 116.257C145.154 116.549 145.023 116.915 145.041 117.355ZM155.055 120.117C154.373 120.22 153.745 120.163 153.169 119.948C152.596 119.727 152.12 119.385 151.739 118.921C151.357 118.453 151.117 117.893 151.019 117.242C150.944 116.749 150.966 116.283 151.084 115.845C151.201 115.402 151.4 115.004 151.68 114.651C151.959 114.293 152.304 113.998 152.716 113.765C153.131 113.527 153.598 113.369 154.117 113.291C154.567 113.223 154.994 113.22 155.397 113.281C155.801 113.343 156.182 113.474 156.541 113.674L155.964 115.03C155.735 114.88 155.486 114.782 155.216 114.735C154.949 114.683 154.677 114.679 154.398 114.721C153.978 114.784 153.628 114.916 153.347 115.116C153.07 115.315 152.873 115.573 152.754 115.889C152.635 116.205 152.607 116.571 152.669 116.986C152.763 117.603 153.016 118.06 153.428 118.357C153.845 118.65 154.366 118.748 154.992 118.654C155.304 118.607 155.591 118.504 155.852 118.347C156.114 118.189 156.332 117.994 156.507 117.762L157.428 118.898C157.116 119.212 156.755 119.477 156.345 119.692C155.935 119.908 155.504 120.049 155.055 120.117ZM158.624 119.513L157.843 118.125C158.263 117.948 158.557 117.728 158.723 117.467C158.89 117.205 158.97 116.866 158.964 116.451C158.959 116.035 158.908 115.511 158.812 114.876L158.503 112.826L163.876 112.016L164.846 118.443L163.201 118.691L162.433 113.601L160.222 113.934L160.329 114.648C160.431 115.32 160.486 115.917 160.494 116.437C160.502 116.957 160.446 117.413 160.325 117.803C160.209 118.194 160.012 118.528 159.734 118.806C159.46 119.084 159.09 119.32 158.624 119.513ZM166.743 118.157L165.774 111.729L167.355 111.491L167.967 115.553L170.601 111.001L172.053 110.782L173.023 117.21L171.442 117.448L170.821 113.335L168.176 117.941L166.743 118.157ZM178.003 116.458L177.034 110.031L178.679 109.783L179.045 112.206L182.008 111.759L181.642 109.336L183.288 109.088L184.257 115.515L182.612 115.763L182.21 113.096L179.247 113.543L179.649 116.21L178.003 116.458ZM189.149 114.974C188.451 115.08 187.817 115.031 187.247 114.827C186.677 114.62 186.205 114.283 185.833 113.818C185.464 113.352 185.229 112.781 185.127 112.104C185.052 111.607 185.067 111.138 185.171 110.697C185.28 110.255 185.465 109.859 185.728 109.508C185.994 109.153 186.323 108.86 186.713 108.63C187.108 108.4 187.554 108.247 188.051 108.172C188.591 108.091 189.087 108.114 189.54 108.243C189.993 108.368 190.385 108.582 190.716 108.888C191.05 109.188 191.308 109.561 191.489 110.007C191.674 110.448 191.765 110.947 191.761 111.504L186.735 112.262C186.782 112.601 186.906 112.885 187.107 113.113C187.312 113.341 187.578 113.504 187.904 113.604C188.234 113.699 188.606 113.715 189.022 113.652C189.39 113.597 189.736 113.49 190.058 113.332C190.381 113.174 190.672 112.968 190.931 112.714L191.683 113.777C191.506 113.97 191.277 114.149 190.995 114.315C190.713 114.48 190.41 114.62 190.086 114.734C189.766 114.848 189.453 114.928 189.149 114.974ZM186.655 111.078L189.991 110.575C189.913 110.144 189.718 109.827 189.407 109.624C189.095 109.417 188.693 109.35 188.2 109.425C187.712 109.498 187.328 109.683 187.048 109.98C186.768 110.272 186.637 110.638 186.655 111.078ZM199.694 113.384C199.013 113.486 198.384 113.43 197.808 113.215C197.236 112.994 196.759 112.652 196.378 112.188C195.996 111.72 195.756 111.16 195.658 110.508C195.584 110.016 195.606 109.55 195.724 109.112C195.841 108.669 196.039 108.271 196.319 107.917C196.598 107.56 196.944 107.264 197.356 107.031C197.771 106.793 198.238 106.635 198.756 106.557C199.206 106.489 199.633 106.486 200.037 106.548C200.441 106.61 200.822 106.741 201.181 106.941L200.603 108.297C200.375 108.147 200.125 108.049 199.855 108.002C199.589 107.95 199.316 107.945 199.038 107.987C198.618 108.051 198.268 108.182 197.987 108.382C197.71 108.582 197.512 108.84 197.393 109.156C197.274 109.471 197.246 109.837 197.309 110.253C197.402 110.87 197.655 111.327 198.068 111.624C198.485 111.916 199.006 112.015 199.631 111.921C199.944 111.873 200.231 111.771 200.492 111.613C200.753 111.456 200.971 111.261 201.147 111.028L202.067 112.165C201.755 112.479 201.394 112.744 200.984 112.959C200.574 113.174 200.144 113.316 199.694 113.384ZM203.399 112.628L202.429 106.2L208.677 105.258L209.646 111.685L208.001 111.933L207.233 106.843L204.276 107.289L205.044 112.379L203.399 112.628ZM211.953 114.098L210.576 104.971L212.029 104.752L212.157 105.601C212.358 105.25 212.64 104.952 213.001 104.704C213.362 104.453 213.819 104.285 214.372 104.202C214.993 104.108 215.568 104.17 216.096 104.389C216.624 104.607 217.064 104.953 217.416 105.425C217.771 105.893 217.999 106.459 218.099 107.124C218.171 107.599 218.158 108.055 218.062 108.49C217.965 108.925 217.797 109.321 217.557 109.677C217.317 110.029 217.011 110.322 216.639 110.558C216.271 110.793 215.849 110.947 215.374 111.019C214.911 111.088 214.487 111.071 214.104 110.967C213.723 110.858 213.382 110.684 213.078 110.445L213.592 113.851L211.953 114.098ZM214.88 109.621C215.244 109.566 215.556 109.438 215.815 109.236C216.073 109.031 216.261 108.77 216.38 108.454C216.499 108.134 216.527 107.773 216.467 107.37C216.406 106.967 216.272 106.63 216.064 106.359C215.857 106.088 215.598 105.895 215.287 105.779C214.98 105.664 214.647 105.633 214.287 105.687C213.922 105.742 213.611 105.87 213.352 106.071C213.093 106.272 212.905 106.533 212.786 106.853C212.668 107.174 212.639 107.535 212.7 107.938C212.761 108.341 212.893 108.678 213.096 108.95C213.303 109.216 213.56 109.41 213.867 109.53C214.178 109.645 214.516 109.676 214.88 109.621ZM221.76 110.055C221.323 110.121 220.923 110.096 220.559 109.98C220.195 109.864 219.894 109.668 219.655 109.393C219.416 109.114 219.264 108.764 219.201 108.344C219.147 107.984 219.188 107.649 219.326 107.339C219.463 107.03 219.704 106.754 220.049 106.514C220.393 106.269 220.85 106.071 221.419 105.919C221.992 105.767 222.683 105.672 223.492 105.633L223.682 106.715C223.147 106.713 222.685 106.745 222.296 106.813C221.908 106.88 221.591 106.974 221.346 107.094C221.106 107.213 220.932 107.354 220.825 107.514C220.722 107.675 220.684 107.849 220.713 108.037C220.755 108.32 220.891 108.523 221.12 108.646C221.348 108.765 221.64 108.798 221.996 108.744C222.3 108.699 222.564 108.602 222.787 108.454C223.015 108.306 223.184 108.12 223.295 107.898C223.405 107.671 223.439 107.418 223.397 107.139L223.152 105.513C223.111 105.243 223.018 105.019 222.873 104.839C222.731 104.654 222.536 104.526 222.289 104.454C222.041 104.377 221.734 104.366 221.37 104.421C221.036 104.472 220.712 104.573 220.397 104.726C220.087 104.874 219.803 105.074 219.548 105.327L218.927 104.218C219.293 103.887 219.693 103.629 220.125 103.446C220.558 103.262 220.984 103.139 221.404 103.075C222.004 102.985 222.536 103.001 223.002 103.124C223.472 103.245 223.854 103.484 224.148 103.838C224.446 104.187 224.64 104.66 224.73 105.256L225.343 109.318L223.89 109.537L223.78 108.804C223.61 109.132 223.349 109.406 222.997 109.626C222.644 109.841 222.231 109.984 221.76 110.055ZM227.162 109.043L226.193 102.616L229.361 102.138C230.103 102.026 230.711 102.077 231.185 102.29C231.664 102.498 231.945 102.879 232.028 103.432C232.07 103.706 232.037 103.956 231.931 104.183C231.824 104.405 231.663 104.6 231.448 104.768C231.231 104.932 230.977 105.065 230.686 105.166L230.605 104.803C231.202 104.783 231.689 104.901 232.065 105.155C232.44 105.405 232.663 105.766 232.734 106.237C232.794 106.636 232.743 106.994 232.581 107.312C232.423 107.63 232.162 107.895 231.8 108.107C231.438 108.319 230.984 108.467 230.44 108.549L227.162 109.043ZM228.567 107.635L230.045 107.412C230.427 107.354 230.71 107.246 230.897 107.086C231.082 106.922 231.156 106.714 231.118 106.461C231.08 106.213 230.949 106.04 230.724 105.942C230.503 105.844 230.2 105.824 229.814 105.882L228.15 106.133L227.981 105.015L229.491 104.787C229.851 104.733 230.122 104.635 230.302 104.494C230.481 104.349 230.553 104.152 230.515 103.903C230.477 103.65 230.348 103.481 230.13 103.396C229.915 103.31 229.63 103.294 229.274 103.347L227.95 103.547L228.567 107.635ZM234.409 108.082L233.628 106.694C234.048 106.517 234.341 106.297 234.508 106.035C234.674 105.774 234.755 105.435 234.749 105.02C234.743 104.604 234.692 104.079 234.597 103.445L234.288 101.395L239.661 100.584L240.63 107.012L238.985 107.26L238.217 102.169L236.006 102.503L236.114 103.216C236.215 103.889 236.27 104.486 236.278 105.006C236.287 105.526 236.231 105.982 236.11 106.372C235.993 106.762 235.796 107.097 235.518 107.375C235.245 107.653 234.875 107.889 234.409 108.082ZM242.527 106.726L241.558 100.298L243.203 100.05L243.562 102.474L245.696 102.152L245.898 103.489L243.764 103.811L244.173 106.477L242.527 106.726ZM248.977 105.95C248.292 106.053 247.66 105.991 247.082 105.762C246.508 105.529 246.032 105.178 245.655 104.709C245.277 104.236 245.041 103.691 244.948 103.074C244.879 102.619 244.9 102.174 245.009 101.737C245.118 101.299 245.306 100.901 245.572 100.541C245.841 100.176 246.176 99.8712 246.577 99.6266C246.978 99.3777 247.436 99.2145 247.95 99.1369C248.631 99.0341 249.259 99.0973 249.832 99.3263C250.41 99.5546 250.888 99.9054 251.266 100.379C251.648 100.847 251.886 101.392 251.979 102.013C252.048 102.467 252.025 102.913 251.912 103.351C251.802 103.784 251.612 104.183 251.343 104.548C251.078 104.912 250.745 105.219 250.344 105.468C249.947 105.712 249.492 105.872 248.977 105.95ZM248.76 104.51C249.12 104.456 249.43 104.328 249.688 104.127C249.951 103.921 250.142 103.66 250.261 103.344C250.379 103.024 250.408 102.662 250.347 102.259C250.286 101.857 250.152 101.52 249.945 101.249C249.737 100.977 249.48 100.784 249.173 100.668C248.867 100.552 248.531 100.522 248.167 100.577C247.803 100.632 247.491 100.76 247.232 100.961C246.973 101.162 246.785 101.423 246.667 101.743C246.548 102.063 246.52 102.425 246.58 102.827C246.641 103.23 246.775 103.567 246.983 103.838C247.189 104.105 247.447 104.299 247.754 104.419C248.061 104.535 248.396 104.565 248.76 104.51ZM256.9 104.755C256.218 104.858 255.59 104.801 255.014 104.586C254.441 104.365 253.965 104.023 253.584 103.559C253.202 103.091 252.962 102.531 252.864 101.88C252.789 101.387 252.811 100.921 252.929 100.483C253.046 100.04 253.245 99.642 253.525 99.2886C253.804 98.931 254.149 98.6357 254.561 98.4026C254.976 98.1647 255.443 98.0066 255.962 97.9284C256.412 97.8605 256.839 97.8575 257.242 97.9193C257.646 97.9811 258.027 98.112 258.386 98.3121L257.809 99.6679C257.58 99.5183 257.331 99.4201 257.061 99.3732C256.794 99.3213 256.522 99.3164 256.243 99.3584C255.823 99.4217 255.473 99.5535 255.192 99.7536C254.915 99.9531 254.718 100.211 254.599 100.527C254.48 100.843 254.452 101.208 254.514 101.624C254.608 102.241 254.86 102.698 255.273 102.995C255.69 103.287 256.211 103.386 256.837 103.292C257.149 103.245 257.436 103.142 257.697 102.985C257.959 102.827 258.177 102.632 258.352 102.399L259.273 103.536C258.961 103.85 258.6 104.115 258.19 104.33C257.78 104.545 257.349 104.687 256.9 104.755ZM260.604 103.999L259.635 97.5716L261.28 97.3234L262.067 102.542L263.166 102.377C263.586 102.313 263.891 102.182 264.08 101.982C264.273 101.778 264.344 101.513 264.295 101.187C264.247 100.866 264.109 100.633 263.881 100.487C263.652 100.338 263.349 100.291 262.972 100.348L261.565 100.561L261.384 99.3652L262.92 99.1335C263.769 99.0055 264.466 99.0932 265.011 99.3966C265.556 99.6957 265.883 100.207 265.992 100.931C266.061 101.39 266.005 101.802 265.823 102.166C265.642 102.531 265.354 102.833 264.961 103.072C264.567 103.311 264.088 103.473 263.522 103.559L260.604 103.999ZM268.454 99.8502C268.272 99.3999 268.174 99.0269 268.16 98.731C268.146 98.4308 268.204 98.1677 268.337 97.9418C268.474 97.7152 268.674 97.4856 268.936 97.2532C269.308 96.9254 269.548 96.6613 269.658 96.4606C269.768 96.26 269.807 96.0504 269.774 95.8319C269.722 95.4891 269.562 95.2525 269.292 95.1223C269.026 94.9871 268.666 94.9537 268.212 95.0222C267.878 95.0726 267.581 95.1657 267.321 95.3013C267.065 95.4363 266.824 95.6085 266.597 95.8181L266 94.5211C266.111 94.386 266.279 94.2468 266.502 94.1035C266.726 93.9559 266.994 93.8211 267.309 93.6991C267.624 93.5771 267.97 93.4877 268.347 93.4309C268.904 93.3468 269.417 93.3615 269.885 93.4749C270.354 93.5883 270.739 93.793 271.043 94.0891C271.35 94.3846 271.538 94.7615 271.608 95.22C271.647 95.4814 271.637 95.7327 271.577 95.974C271.517 96.2154 271.392 96.4642 271.203 96.7207C271.018 96.9764 270.756 97.2592 270.417 97.5688C270.182 97.7797 270.014 97.9737 269.913 98.151C269.817 98.3276 269.777 98.5287 269.794 98.7541C269.814 98.9745 269.877 99.263 269.984 99.6194L268.454 99.8502ZM269.736 102.819C269.437 102.864 269.163 102.809 268.916 102.653C268.669 102.493 268.521 102.255 268.473 101.938C268.441 101.723 268.462 101.53 268.536 101.356C268.615 101.182 268.732 101.04 268.886 100.929C269.04 100.818 269.218 100.747 269.419 100.717C269.724 100.671 269.997 100.728 270.241 100.889C270.488 101.044 270.635 101.283 270.684 101.604C270.716 101.814 270.692 102.006 270.613 102.18C270.538 102.354 270.424 102.496 270.27 102.607C270.116 102.718 269.938 102.788 269.736 102.819Z" fill="#FDEAC3"/>
    <rect x="0.169434" y="49.1757" width="190" height="24" rx="6" transform="rotate(-15 0.169434 49.1757)" fill="#CC3355"/>
    <path d="M13.408 63.228L11.0528 54.4381L12.6852 54.0007L13.6004 57.4162L17.5935 56.3463L16.6783 52.9307L18.3108 52.4933L20.666 61.2833L19.0336 61.7207L17.9939 57.8405L14.0008 58.9105L15.0405 62.7906L13.408 63.228ZM25.6562 60.148C24.9739 60.3308 24.3384 60.3531 23.7495 60.2148C23.1595 60.0723 22.6534 59.7907 22.2311 59.37C21.813 58.9482 21.5154 58.4066 21.3382 57.7452C21.2081 57.2597 21.1703 56.7921 21.2247 56.3423C21.2833 55.8914 21.4235 55.477 21.6453 55.0991C21.8701 54.7159 22.1636 54.3882 22.5259 54.1162C22.8923 53.843 23.3183 53.6414 23.8039 53.5113C24.3313 53.37 24.8274 53.338 25.2922 53.4153C25.756 53.4884 26.1693 53.6581 26.5322 53.9242C26.8982 54.1851 27.1962 54.5269 27.4261 54.9498C27.6591 55.3674 27.805 55.8532 27.8637 56.4072L22.9539 57.7228C23.0383 58.0546 23.1932 58.3226 23.4184 58.527C23.6478 58.7302 23.9302 58.8631 24.2655 58.9258C24.6039 58.9832 24.9761 58.9575 25.3821 58.8487C25.742 58.7522 26.0733 58.6074 26.376 58.4142C26.6786 58.2209 26.9447 57.9836 27.1744 57.7022L28.0406 58.6747C27.8865 58.8865 27.6787 59.0902 27.4171 59.2859C27.1555 59.4816 26.8698 59.6546 26.5602 59.8049C26.2547 59.954 25.9534 60.0684 25.6562 60.148ZM22.7419 56.5549L26.0005 55.6817C25.8746 55.2623 25.6458 54.9693 25.314 54.8024C24.9811 54.6315 24.5739 54.6105 24.0926 54.7394C23.6154 54.8673 23.2545 55.0941 23.0098 55.4199C22.764 55.7414 22.6747 56.1198 22.7419 56.5549ZM32.9935 57.9801L31.3112 51.7016L37.4139 50.0664L39.0962 56.3449L37.4889 56.7756L36.1565 51.803L33.2684 52.5769L34.6008 57.5495L32.9935 57.9801ZM43.9094 55.2571C43.2397 55.4365 42.605 55.4451 42.0052 55.2828C41.4085 55.1152 40.8963 54.8195 40.4688 54.3958C40.04 53.9678 39.7449 53.4524 39.5834 52.8497C39.4646 52.406 39.435 51.9608 39.4948 51.5142C39.5545 51.0675 39.6962 50.6504 39.9199 50.263C40.1467 49.8702 40.4458 49.5299 40.8172 49.2419C41.1876 48.9498 41.6239 48.7364 42.1262 48.6019C42.7917 48.4235 43.4222 48.4161 44.0178 48.5795C44.6176 48.7418 45.1318 49.0369 45.5606 49.4649C45.9934 49.8917 46.2906 50.4065 46.4521 51.0092C46.571 51.4529 46.5985 51.8987 46.5346 52.3465C46.4737 52.789 46.332 53.206 46.1094 53.5977C45.8868 53.9893 45.5904 54.3311 45.22 54.6233C44.8486 54.9112 44.4117 55.1225 43.9094 55.2571ZM43.5263 53.8524C43.8821 53.7571 44.1774 53.5949 44.4121 53.366C44.6499 53.1318 44.8102 52.8511 44.893 52.5239C44.9747 52.1925 44.9628 51.83 44.8574 51.4366C44.752 51.0431 44.581 50.7233 44.3446 50.4771C44.1082 50.2309 43.8311 50.0674 43.5133 49.9865C43.1956 49.9057 42.8588 49.9129 42.503 50.0082C42.1472 50.1036 41.8499 50.2663 41.6109 50.4963C41.3762 50.7252 41.2179 51.0053 41.1363 51.3368C41.0588 51.6671 41.0728 52.0289 41.1782 52.4224C41.2836 52.8158 41.4545 53.1357 41.691 53.3819C41.9263 53.6239 42.2034 53.7874 42.5223 53.8724C42.84 53.9533 43.1747 53.9466 43.5263 53.8524ZM48.6162 53.794L46.9339 47.5155L48.5412 47.0848L49.1754 49.4518L52.0698 48.6763L51.4356 46.3093L53.0429 45.8786L54.7252 52.1571L53.1179 52.5878L52.4197 49.9822L49.5253 50.7578L50.2235 53.3634L48.6162 53.794ZM56.5747 51.6616L54.8924 45.383L56.4369 44.9692L57.5001 48.9372L59.6076 44.1196L61.0265 43.7394L62.7088 50.0179L61.1643 50.4318L60.0876 46.4135L57.9748 51.2864L56.5747 51.6616ZM64.5578 49.5225L62.8754 43.244L64.2567 42.8739L64.2944 42.8638L68.0926 46.1393L67.4053 46.337L68.9091 41.6273L70.3218 41.2488L72.0041 47.5273L70.5663 47.9125L69.394 43.4623L69.7353 43.5054L68.4652 47.2037L67.467 47.4712L64.4095 44.9258L64.6772 44.7194L65.8951 49.1642L64.5578 49.5225ZM75.6488 46.7525C75.2219 46.8669 74.8212 46.8868 74.4468 46.8122C74.0724 46.7375 73.7512 46.5769 73.4832 46.3302C73.2141 46.0793 73.0246 45.7487 72.9147 45.3385C72.8204 44.9869 72.8242 44.6494 72.926 44.3261C73.0278 44.0027 73.2366 43.7023 73.5526 43.4247C73.8674 43.143 74.2989 42.895 74.8471 42.6808C75.3996 42.4655 76.0757 42.2933 76.8756 42.1642L77.185 43.2185C76.653 43.2758 76.1977 43.3597 75.8191 43.4701C75.4404 43.5806 75.1362 43.7092 74.9063 43.856C74.6807 44.0017 74.5236 44.1605 74.435 44.3322C74.3506 44.5029 74.3331 44.6803 74.3825 44.8645C74.4565 45.1407 74.6142 45.3273 74.8554 45.4241C75.0956 45.5168 75.3894 45.5166 75.7368 45.4235C76.034 45.3439 76.2852 45.2182 76.4904 45.0466C76.6999 44.8738 76.8473 44.6706 76.9327 44.4368C77.017 44.1989 77.0227 43.9439 76.9498 43.6719L76.5242 42.0834C76.4535 41.8197 76.3359 41.6067 76.1713 41.4445C76.0097 41.2769 75.8019 41.1711 75.5479 41.127C75.2927 41.0787 74.9872 41.1023 74.6314 41.1976C74.3049 41.2851 73.994 41.4222 73.6986 41.609C73.4063 41.7905 73.1474 42.0214 72.9219 42.3017L72.1808 41.2688C72.5078 40.8985 72.8759 40.598 73.2851 40.3672C73.6943 40.1365 74.104 39.9661 74.5142 39.8562C75.1002 39.6992 75.6314 39.6556 76.1077 39.7253C76.5881 39.794 76.9945 39.9879 77.3268 40.3071C77.6621 40.621 77.9077 41.0689 78.0636 41.6507L79.1269 45.6187L77.7079 45.9989L77.5161 45.2832C77.3842 45.6281 77.1554 45.9294 76.8297 46.1871C76.5029 46.4407 76.1092 46.6292 75.6488 46.7525ZM80.904 45.1426L79.2217 38.864L80.829 38.4334L81.4569 40.802L83.5414 40.2435L83.8913 41.5494L81.8068 42.108L82.5113 44.7119L80.904 45.1426ZM87.2267 43.6503C86.557 43.8297 85.9222 43.8383 85.3225 43.676C84.7257 43.5084 84.2136 43.2127 83.786 42.7889C83.3573 42.361 83.0622 41.8456 82.9007 41.2429C82.7818 40.7992 82.7523 40.354 82.812 39.9073C82.8718 39.4606 83.0135 39.0436 83.2372 38.6562C83.4639 38.2634 83.763 37.9231 84.1345 37.6351C84.5048 37.343 84.9411 37.1296 85.4434 36.995C86.1089 36.8167 86.7395 36.8093 87.3351 36.9727C87.9349 37.135 88.4491 37.4301 88.8778 37.8581C89.3096 38.2807 89.6068 38.7955 89.7694 39.4024C89.8883 39.8461 89.9158 40.2918 89.8518 40.7397C89.7909 41.1822 89.6471 41.5998 89.4204 41.9925C89.1978 42.3841 88.9014 42.726 88.531 43.0181C88.1637 43.305 87.729 43.5157 87.2267 43.6503ZM86.8498 42.2439C87.2014 42.1497 87.4946 41.9881 87.7294 41.7592C87.9672 41.525 88.1275 41.2443 88.2103 40.9171C88.292 40.5856 88.2801 40.2232 88.1747 39.8297C88.0692 39.4363 87.8983 39.1165 87.6619 38.8703C87.4254 38.6241 87.1483 38.4605 86.8306 38.3797C86.5128 38.2988 86.176 38.3061 85.8203 38.4014C85.4645 38.4968 85.1692 38.6589 84.9345 38.8878C84.6997 39.1167 84.5415 39.3968 84.4598 39.7282C84.3781 40.0597 84.39 40.4221 84.4954 40.8156C84.6009 41.209 84.7718 41.5288 85.0082 41.775C85.2436 42.017 85.5207 42.1806 85.8395 42.2656C86.1573 42.3465 86.4941 42.3392 86.8498 42.2439ZM92.339 44.2387L91.6198 43.6642C91.9101 43.4249 92.1532 43.1602 92.3491 42.8699C92.545 42.5796 92.6645 42.3143 92.7078 42.0739C92.5019 42.1426 92.303 42.1622 92.1112 42.1329C91.9194 42.1035 91.7516 42.0296 91.6077 41.9111C91.468 41.7915 91.3717 41.6334 91.319 41.4367C91.2383 41.1353 91.2695 40.8667 91.4127 40.631C91.559 40.3899 91.7849 40.2284 92.0904 40.1466C92.4336 40.0546 92.7428 40.0951 93.018 40.2681C93.292 40.437 93.4817 40.7181 93.5872 41.1115C93.669 41.4171 93.6771 41.7402 93.6114 42.0808C93.5509 42.4245 93.4144 42.7773 93.2019 43.1394C92.9893 43.5014 92.7017 43.8678 92.339 44.2387ZM101.256 39.8911C100.591 40.0694 99.9597 40.0837 99.3633 39.9339C98.77 39.7789 98.258 39.4921 97.8273 39.0737C97.3956 38.651 97.0944 38.1216 96.924 37.4854C96.795 37.004 96.7646 36.5389 96.8327 36.0899C96.8997 35.6368 97.0524 35.219 97.2909 34.8366C97.5283 34.45 97.8386 34.1179 98.2218 33.8403C98.608 33.5573 99.0544 33.348 99.5609 33.2123C100 33.0945 100.424 33.0438 100.832 33.06C101.24 33.0763 101.634 33.1637 102.013 33.3224L101.59 34.7343C101.347 34.6113 101.088 34.5415 100.814 34.5251C100.544 34.5034 100.273 34.5289 100 34.6018C99.5903 34.7118 99.2568 34.8819 99 35.1122C98.7474 35.3414 98.5797 35.6196 98.4969 35.9468C98.4141 36.2741 98.4271 36.6407 98.5359 37.0467C98.6974 37.6495 98.9999 38.0753 99.4435 38.3244C99.8901 38.5681 100.419 38.608 101.03 38.4443C101.336 38.3624 101.609 38.2285 101.851 38.0426C102.093 37.8567 102.288 37.6385 102.436 37.3879L103.478 38.4141C103.203 38.7614 102.874 39.065 102.491 39.3248C102.107 39.5845 101.696 39.7733 101.256 39.8911ZM111.511 36.9414L110.877 34.5744C110.607 34.7229 110.35 34.8523 110.106 34.9626C109.861 35.0687 109.602 35.1582 109.33 35.2311C108.778 35.3791 108.284 35.4195 107.849 35.3522C107.416 35.2795 107.05 35.0928 106.75 34.792C106.452 34.4859 106.23 34.0586 106.083 33.5103L105.622 31.79L107.23 31.3593L107.632 32.8599C107.744 33.2785 107.925 33.5708 108.176 33.7368C108.431 33.9018 108.795 33.9209 109.268 33.7941C109.545 33.7201 109.78 33.6436 109.974 33.5647C110.171 33.4804 110.359 33.3963 110.539 33.3124L109.829 30.6628L111.436 30.2322L113.119 36.5107L111.511 36.9414ZM117.921 35.4258C117.239 35.6086 116.603 35.6308 116.014 35.4925C115.424 35.35 114.918 35.0684 114.496 34.6477C114.078 34.2259 113.78 33.6843 113.603 33.023C113.473 32.5374 113.435 32.0698 113.489 31.62C113.548 31.1692 113.688 30.7548 113.91 30.3768C114.135 29.9936 114.428 29.6659 114.791 29.3939C115.157 29.1208 115.583 28.9191 116.069 28.789C116.596 28.6477 117.092 28.6157 117.557 28.693C118.021 28.7662 118.434 28.9358 118.797 29.202C119.163 29.4628 119.461 29.8046 119.691 30.2275C119.924 30.6451 120.07 31.1309 120.129 31.6849L115.219 33.0005C115.303 33.3323 115.458 33.6004 115.683 33.8047C115.913 34.0079 116.195 34.1409 116.53 34.2036C116.869 34.2609 117.241 34.2352 117.647 34.1264C118.007 34.03 118.338 33.8851 118.641 33.6919C118.943 33.4986 119.21 33.2613 119.439 32.98L120.305 33.9524C120.151 34.1642 119.943 34.3679 119.682 34.5636C119.42 34.7593 119.135 34.9323 118.825 35.0826C118.519 35.2317 118.218 35.3461 117.921 35.4258ZM115.007 31.8326L118.265 30.9595C118.139 30.5401 117.911 30.247 117.579 30.0802C117.246 29.9092 116.839 29.8882 116.357 30.0172C115.88 30.145 115.519 30.3718 115.275 30.6976C115.029 31.0192 114.939 31.3975 115.007 31.8326ZM122.242 34.0662L120.559 27.7876L124.753 26.6638L125.103 27.9698L122.517 28.6629L123.849 33.6355L122.242 34.0662ZM130.619 32.0233C129.949 32.2027 129.315 32.2113 128.715 32.049C128.118 31.8814 127.606 31.5857 127.179 31.1619C126.75 30.734 126.455 30.2186 126.293 29.6159C126.174 29.1722 126.145 28.727 126.205 28.2803C126.264 27.8337 126.406 27.4166 126.63 27.0292C126.856 26.6364 127.156 26.2961 127.527 26.0081C127.897 25.716 128.334 25.5026 128.836 25.368C129.501 25.1897 130.132 25.1823 130.728 25.3457C131.327 25.508 131.842 25.8031 132.27 26.2311C132.703 26.6579 133 27.1727 133.162 27.7754C133.281 28.2191 133.308 28.6649 133.244 29.1127C133.183 29.5552 133.042 29.9722 132.819 30.3638C132.597 30.7555 132.3 31.0973 131.93 31.3895C131.558 31.6774 131.121 31.8887 130.619 32.0233ZM130.236 30.6186C130.592 30.5232 130.887 30.3611 131.122 30.1322C131.36 29.898 131.52 29.6173 131.603 29.2901C131.684 28.9586 131.673 28.5962 131.567 28.2027C131.462 27.8093 131.291 27.4895 131.054 27.2433C130.818 26.9971 130.541 26.8336 130.223 26.7527C129.905 26.6719 129.569 26.6791 129.213 26.7744C128.857 26.8698 128.56 27.0324 128.321 27.2625C128.086 27.4913 127.928 27.7715 127.846 28.1029C127.769 28.4332 127.783 28.7951 127.888 29.1886C127.993 29.582 128.164 29.9019 128.401 30.1481C128.636 30.3901 128.913 30.5536 129.232 30.6386C129.55 30.7195 129.884 30.7128 130.236 30.6186ZM138.343 29.7519L136.66 23.4734L138.268 23.0427L138.902 25.4097L141.796 24.6342L141.162 22.2672L142.769 21.8365L144.452 28.115L142.844 28.5457L142.146 25.9401L139.252 26.7157L139.95 29.3212L138.343 29.7519ZM148.097 27.3401C147.67 27.4545 147.269 27.4744 146.895 27.3997C146.521 27.3251 146.199 27.1644 145.931 26.9177C145.662 26.6668 145.473 26.3363 145.363 25.9261C145.269 25.5745 145.272 25.237 145.374 24.9136C145.476 24.5903 145.685 24.2898 146.001 24.0123C146.316 23.7305 146.747 23.4825 147.295 23.2684C147.848 23.053 148.524 22.8808 149.324 22.7518L149.633 23.8061C149.101 23.8634 148.646 23.9473 148.267 24.0577C147.889 24.1681 147.584 24.2968 147.355 24.4436C147.129 24.5893 146.972 24.748 146.883 24.9198C146.799 25.0904 146.781 25.2679 146.831 25.452C146.905 25.7283 147.062 25.9148 147.304 26.0117C147.544 26.1043 147.838 26.1041 148.185 26.011C148.482 25.9314 148.733 25.8058 148.939 25.6341C149.148 25.4614 149.295 25.2581 149.381 25.0244C149.465 24.7865 149.471 24.5315 149.398 24.2594L148.972 22.671C148.902 22.4073 148.784 22.1943 148.619 22.032C148.458 21.8644 148.25 21.7586 147.996 21.7145C147.741 21.6663 147.435 21.6898 147.08 21.7852C146.753 21.8726 146.442 22.0098 146.147 22.1966C145.855 22.3781 145.596 22.609 145.37 22.8892L144.629 21.8563C144.956 21.4861 145.324 21.1856 145.733 20.9548C146.143 20.724 146.552 20.5537 146.962 20.4438C147.548 20.2868 148.08 20.2431 148.556 20.3129C149.036 20.3816 149.443 20.5755 149.775 20.8947C150.11 21.2086 150.356 21.6565 150.512 22.2383L151.575 26.2063L150.156 26.5865L149.964 25.8707C149.832 26.2156 149.604 26.517 149.278 26.7747C148.951 27.0283 148.557 27.2167 148.097 27.3401ZM156.932 24.7708L156.298 22.4038C156.028 22.5523 155.772 22.6817 155.527 22.792C155.282 22.8981 155.024 22.9876 154.751 23.0605C154.199 23.2085 153.705 23.2489 153.27 23.1816C152.838 23.109 152.471 22.9223 152.171 22.6214C151.874 22.3153 151.651 21.8881 151.504 21.3397L151.043 19.6194L152.651 19.1888L153.053 20.6893C153.165 21.1079 153.347 21.4002 153.597 21.5663C153.852 21.7312 154.216 21.7503 154.689 21.6236C154.966 21.5496 155.201 21.4731 155.395 21.3941C155.592 21.3099 155.781 21.2258 155.96 21.1418L155.25 18.4923L156.857 18.0616L158.54 24.3401L156.932 24.7708ZM162.187 23.5647C161.76 23.6791 161.359 23.699 160.985 23.6244C160.61 23.5497 160.289 23.3891 160.021 23.1423C159.752 22.8914 159.563 22.5609 159.453 22.1507C159.359 21.7991 159.362 21.4616 159.464 21.1383C159.566 20.8149 159.775 20.5144 160.091 20.2369C160.405 19.9551 160.837 19.7072 161.385 19.493C161.938 19.2777 162.614 19.1055 163.414 18.9764L163.723 20.0307C163.191 20.088 162.736 20.1719 162.357 20.2823C161.978 20.3928 161.674 20.5214 161.444 20.6682C161.219 20.8139 161.062 20.9726 160.973 21.1444C160.889 21.3151 160.871 21.4925 160.921 21.6767C160.995 21.9529 161.152 22.1395 161.394 22.2363C161.634 22.329 161.927 22.3288 162.275 22.2357C162.572 22.156 162.823 22.0304 163.029 21.8588C163.238 21.686 163.385 21.4828 163.471 21.249C163.555 21.0111 163.561 20.7561 163.488 20.484L163.062 18.8956C162.992 18.6319 162.874 18.4189 162.709 18.2566C162.548 18.0891 162.34 17.9833 162.086 17.9392C161.831 17.8909 161.525 17.9144 161.169 18.0098C160.843 18.0973 160.532 18.2344 160.237 18.4212C159.944 18.6027 159.685 18.8336 159.46 19.1138L158.719 18.081C159.046 17.7107 159.414 17.4102 159.823 17.1794C160.232 16.9487 160.642 16.7783 161.052 16.6684C161.638 16.5114 162.169 16.4678 162.646 16.5375C163.126 16.6062 163.533 16.8001 163.865 17.1193C164.2 17.4332 164.446 17.8811 164.602 18.4629L165.665 22.4309L164.246 22.8111L164.054 22.0954C163.922 22.4403 163.694 22.7416 163.368 22.9993C163.041 23.2529 162.647 23.4414 162.187 23.5647ZM168.583 21.6489L167.251 16.6763L165.273 17.2062L164.923 15.9003L170.486 14.4098L170.836 15.7157L168.858 16.2456L170.191 21.2182L168.583 21.6489ZM173.389 20.3611L171.707 14.0826L173.314 13.6519L174.681 18.7501L175.754 18.4624C176.164 18.3525 176.452 18.1879 176.618 17.9686C176.786 17.7439 176.828 17.4726 176.743 17.1545C176.659 16.8405 176.495 16.6241 176.253 16.5052C176.009 16.3821 175.703 16.3699 175.334 16.4686L173.959 16.8371L173.646 15.6693L175.147 15.2672C175.976 15.0451 176.678 15.0543 177.254 15.2948C177.829 15.5311 178.211 16.003 178.4 16.7103C178.52 17.1582 178.511 17.5736 178.371 17.9564C178.231 18.3393 177.979 18.6715 177.615 18.953C177.251 19.2345 176.792 19.4493 176.24 19.5974L173.389 20.3611Z" fill="#FDEAC3"/>
    <rect x="8.1272" y="255" width="170" height="24" rx="6" transform="rotate(19.7937 8.1272 255)" fill="#318ABA"/>
    <path d="M10.9803 274.094L14.0619 265.532L19.5908 267.522L19.0889 268.916L15.1502 267.499L14.3974 269.59L15.8714 270.121C16.8132 270.46 17.4885 270.945 17.8971 271.575C18.3097 272.207 18.3656 272.941 18.0648 273.777C17.8711 274.315 17.5817 274.729 17.1965 275.019C16.8128 275.305 16.3526 275.464 15.8158 275.496C15.2832 275.53 14.6907 275.43 14.0383 275.195L10.9803 274.094ZM13.0085 273.45L14.354 273.934C14.8637 274.117 15.2955 274.146 15.6494 274.02C16.0073 273.896 16.2626 273.621 16.4152 273.197C16.5634 272.785 16.5455 272.413 16.3615 272.08C16.179 271.742 15.8492 271.488 15.3722 271.316L13.9594 270.807L13.0085 273.45ZM21.4167 278.058C20.7643 277.823 20.2382 277.468 19.8382 276.992C19.4438 276.514 19.192 275.979 19.0827 275.387C18.9748 274.791 19.0265 274.199 19.2378 273.612C19.3934 273.18 19.6231 272.797 19.9271 272.465C20.2311 272.132 20.5854 271.87 20.9902 271.68C21.4005 271.487 21.8403 271.378 22.3097 271.353C22.7805 271.325 23.2606 271.399 23.7499 271.575C24.3982 271.808 24.9202 272.162 25.3161 272.636C25.716 273.111 25.9699 273.647 26.0778 274.243C26.1897 274.841 26.14 275.433 25.9287 276.02C25.7732 276.452 25.5414 276.834 25.2333 277.165C24.9308 277.494 24.5765 277.756 24.1702 277.95C23.764 278.145 23.3255 278.256 22.8546 278.285C22.3853 278.309 21.9059 278.234 21.4167 278.058ZM21.9036 276.685C22.2502 276.81 22.5852 276.845 22.9086 276.791C23.2375 276.735 23.5293 276.596 23.7841 276.374C24.0402 276.149 24.2373 275.844 24.3752 275.461C24.5132 275.078 24.5553 274.718 24.5016 274.38C24.4479 274.043 24.3137 273.751 24.0989 273.503C23.8841 273.256 23.6034 273.069 23.2568 272.945C22.9102 272.82 22.5732 272.784 22.2457 272.836C21.9223 272.89 21.6325 273.03 21.3764 273.256C21.1242 273.483 20.9292 273.788 20.7913 274.171C20.6534 274.554 20.6112 274.915 20.6649 275.252C20.7201 275.585 20.8543 275.877 21.0677 276.129C21.2825 276.377 21.5611 276.562 21.9036 276.685ZM26.1168 279.542L28.3179 273.426L29.8836 273.989L29.0477 276.293L31.0782 277.024L30.6203 278.296L28.5898 277.565L27.6825 280.105L26.1168 279.542ZM32.1606 281.924C31.5082 281.689 30.9821 281.334 30.5822 280.859C30.1878 280.381 29.9359 279.846 29.8266 279.254C29.7187 278.658 29.7705 278.066 29.9818 277.479C30.1373 277.047 30.3671 276.664 30.671 276.331C30.975 275.999 31.3294 275.737 31.7341 275.547C32.1444 275.353 32.5843 275.245 33.0536 275.22C33.5245 275.192 34.0045 275.265 34.4938 275.441C35.1421 275.675 35.6642 276.028 36.06 276.502C36.46 276.978 36.7138 277.514 36.8217 278.11C36.9351 278.703 36.8854 279.296 36.6726 279.887C36.5171 280.319 36.2853 280.701 35.9773 281.032C35.6748 281.361 35.3184 281.622 34.9081 281.815C34.5018 282.009 34.0633 282.121 33.5925 282.149C33.1272 282.175 32.6499 282.1 32.1606 281.924ZM32.6537 280.554C32.9962 280.678 33.3291 280.712 33.6525 280.658C33.9814 280.602 34.2733 280.462 34.528 280.241C34.7842 280.015 34.9812 279.711 35.1192 279.328C35.2571 278.944 35.2992 278.584 35.2456 278.247C35.1919 277.91 35.0576 277.618 34.8428 277.37C34.628 277.122 34.3473 276.936 34.0007 276.811C33.6542 276.687 33.3192 276.651 32.9958 276.705C32.6724 276.759 32.3826 276.899 32.1264 277.125C31.8702 277.35 31.6732 277.655 31.5352 278.038C31.3973 278.421 31.3552 278.781 31.4089 279.118C31.464 279.451 31.5983 279.744 31.8116 279.996C32.0264 280.243 32.3071 280.43 32.6537 280.554ZM39.699 284.637C39.0507 284.404 38.5244 284.056 38.1201 283.592C37.7213 283.127 37.4645 282.599 37.3496 282.009C37.2362 281.416 37.291 280.809 37.5141 280.19C37.6828 279.721 37.9233 279.321 38.2354 278.992C38.549 278.658 38.9128 278.402 39.3268 278.224C39.7424 278.042 40.1867 277.946 40.6598 277.937C41.1385 277.925 41.6245 278.008 42.1178 278.185C42.546 278.339 42.9229 278.539 43.2488 278.786C43.5747 279.032 43.848 279.328 44.0687 279.675L42.916 280.593C42.786 280.353 42.6134 280.148 42.3981 279.979C42.1884 279.806 41.951 279.673 41.6859 279.577C41.2864 279.433 40.9154 279.383 40.5731 279.425C40.2349 279.469 39.9384 279.602 39.6837 279.824C39.4289 280.045 39.2304 280.354 39.0881 280.749C38.8768 281.336 38.8822 281.859 39.1044 282.316C39.3321 282.771 39.7436 283.106 40.3389 283.32C40.6365 283.427 40.9376 283.474 41.2423 283.459C41.5469 283.444 41.8316 283.376 42.0963 283.255L42.3665 284.692C41.9426 284.821 41.4991 284.882 41.036 284.877C40.5728 284.871 40.1271 284.791 39.699 284.637ZM43.318 285.733L45.5191 279.617L47.0848 280.18L45.2975 285.146L46.3433 285.523C46.7429 285.666 47.0732 285.695 47.3343 285.61C47.6009 285.522 47.79 285.323 47.9015 285.013C48.0116 284.707 48.0009 284.436 47.8694 284.2C47.7394 283.96 47.495 283.775 47.1362 283.646L45.7968 283.164L46.2062 282.026L47.6679 282.552C48.4752 282.843 49.0467 283.251 49.3824 283.777C49.7196 284.299 49.7641 284.905 49.5162 285.594C49.3591 286.03 49.114 286.366 48.7809 286.6C48.4477 286.835 48.0513 286.964 47.5915 286.987C47.1318 287.011 46.6328 286.926 46.0946 286.732L43.318 285.733ZM53.0533 289.236L55.2545 283.12L61.1992 285.26L58.9981 291.376L57.4324 290.812L59.1757 285.968L56.3623 284.956L54.619 289.8L53.0533 289.236ZM63.5715 293.229C62.9191 292.994 62.3929 292.639 61.993 292.163C61.5986 291.685 61.3468 291.15 61.2374 290.558C61.1296 289.962 61.1813 289.371 61.3926 288.783C61.5482 288.351 61.7779 287.969 62.0819 287.636C62.3858 287.303 62.7402 287.042 63.145 286.851C63.5553 286.658 63.9951 286.549 64.4645 286.525C64.9353 286.496 65.4154 286.57 65.9046 286.746C66.5529 286.979 67.075 287.333 67.4709 287.807C67.8708 288.283 68.1247 288.818 68.2326 289.414C68.3445 290.012 68.2948 290.604 68.0835 291.192C67.9279 291.624 67.6962 292.005 67.3881 292.337C67.0856 292.665 66.7312 292.927 66.325 293.122C65.9188 293.316 65.4803 293.428 65.0094 293.456C64.5401 293.481 64.0607 293.405 63.5715 293.229ZM64.0584 291.857C64.405 291.982 64.74 292.017 65.0633 291.963C65.3923 291.906 65.6841 291.767 65.9388 291.546C66.195 291.32 66.3921 291.016 66.53 290.632C66.668 290.249 66.7101 289.889 66.6564 289.552C66.6027 289.215 66.4685 288.922 66.2537 288.675C66.0389 288.427 65.7582 288.241 65.4116 288.116C65.065 287.991 64.728 287.955 64.4005 288.008C64.0771 288.062 63.7873 288.202 63.5312 288.427C63.279 288.654 63.084 288.959 62.9461 289.343C62.8081 289.726 62.766 290.086 62.8197 290.423C62.8749 290.756 63.0091 291.049 63.2224 291.3C63.4373 291.548 63.7159 291.734 64.0584 291.857ZM69.5865 295.187L71.3298 290.343L69.4033 289.649L69.8611 288.377L75.2799 290.327L74.822 291.6L72.8955 290.906L71.1522 295.75L69.5865 295.187ZM77.0276 298.072C76.363 297.833 75.8284 297.488 75.4237 297.039C75.0206 296.585 74.7656 296.065 74.6589 295.478C74.5563 294.893 74.6209 294.279 74.8527 293.635C75.0229 293.162 75.2587 292.756 75.5601 292.418C75.8655 292.081 76.2171 291.821 76.6149 291.637C77.0182 291.45 77.4462 291.349 77.8989 291.332C78.3557 291.317 78.8206 291.394 79.2936 291.565C79.8073 291.75 80.233 292.006 80.5706 292.335C80.9097 292.66 81.1523 293.035 81.2985 293.461C81.4502 293.884 81.4998 294.334 81.4473 294.813C81.4004 295.289 81.243 295.771 80.9751 296.259L76.1924 294.538C76.0724 294.859 76.0466 295.167 76.1149 295.464C76.1874 295.761 76.3434 296.032 76.583 296.275C76.8281 296.515 77.1484 296.706 77.5439 296.848C77.8946 296.975 78.2493 297.045 78.6081 297.059C78.9669 297.073 79.3209 297.03 79.67 296.93L79.8265 298.222C79.5791 298.308 79.2921 298.357 78.9656 298.369C78.6391 298.38 78.3059 298.359 77.9658 298.306C77.6299 298.254 77.3171 298.176 77.0276 298.072ZM76.6847 293.458L79.8589 294.6C79.9949 294.184 79.9742 293.813 79.7969 293.487C79.6211 293.156 79.2987 292.907 78.8298 292.738C78.365 292.571 77.9392 292.551 77.5524 292.679C77.167 292.803 76.8778 293.062 76.6847 293.458ZM80.4272 301.989L83.5528 293.305L84.935 293.802L84.6444 294.61C84.988 294.397 85.3776 294.268 85.8132 294.222C86.2503 294.172 86.7318 294.242 87.2578 294.431C87.849 294.644 88.3251 294.972 88.686 295.415C89.047 295.858 89.2699 296.371 89.3547 296.954C89.4452 297.535 89.3766 298.141 89.1492 298.773C88.9863 299.226 88.759 299.62 88.4673 299.958C88.1755 300.295 87.8395 300.563 87.4592 300.762C87.0804 300.957 86.6713 301.07 86.2319 301.101C85.7966 301.133 85.3527 301.068 84.9001 300.905C84.4598 300.747 84.0955 300.53 83.8073 300.256C83.5247 299.979 83.3067 299.664 83.1533 299.309L81.9867 302.551L80.4272 301.989ZM85.1302 299.44C85.4768 299.565 85.8118 299.601 86.1352 299.547C86.46 299.488 86.7498 299.349 87.0045 299.127C87.2607 298.902 87.4578 298.597 87.5957 298.214C87.7337 297.831 87.7758 297.47 87.7221 297.133C87.6684 296.796 87.5321 296.503 87.3132 296.254C87.0984 296.006 86.8198 295.821 86.4773 295.697C86.1307 295.573 85.7957 295.537 85.4723 295.591C85.1489 295.645 84.8591 295.785 84.603 296.011C84.3468 296.236 84.1497 296.541 84.0118 296.924C83.8738 297.307 83.8297 297.667 83.8793 298.002C83.9344 298.335 84.0687 298.628 84.282 298.88C84.5009 299.129 84.7836 299.316 85.1302 299.44ZM88.9027 302.138L92.3119 299.787L92.3306 300.906C91.8331 300.727 91.4322 300.497 91.1276 300.217C90.8246 299.933 90.6266 299.613 90.5336 299.257C90.4406 298.902 90.4645 298.528 90.6054 298.137C90.758 297.712 90.9926 297.387 91.3091 297.16C91.6312 296.931 92.0145 296.806 92.4591 296.786C92.9051 296.763 93.3891 296.845 93.911 297.033L96.6571 298.021L94.456 304.137L92.9575 303.598L94.7449 298.632L93.6623 298.242C93.275 298.103 92.9537 298.067 92.6985 298.137C92.4488 298.204 92.2741 298.376 92.1743 298.653C92.0774 298.922 92.0936 299.165 92.2228 299.382C92.356 299.6 92.598 299.772 92.9486 299.899L94.3125 300.389L93.9163 301.49L92.9683 301.149L90.6518 302.768L88.9027 302.138ZM97.5742 305.259L99.3175 300.415L97.391 299.722L97.8488 298.45L103.268 300.4L102.81 301.672L100.883 300.979L99.1399 305.823L97.5742 305.259ZM102.256 306.944L104.457 300.828L106.023 301.392L104.235 306.358L105.281 306.734C105.681 306.878 106.011 306.907 106.272 306.821C106.539 306.733 106.728 306.534 106.839 306.224C106.949 305.918 106.939 305.647 106.807 305.411C106.677 305.171 106.433 304.986 106.074 304.857L104.735 304.375L105.144 303.238L106.606 303.764C107.413 304.054 107.985 304.463 108.32 304.989C108.657 305.511 108.702 306.116 108.454 306.805C108.297 307.242 108.052 307.577 107.719 307.812C107.386 308.047 106.989 308.176 106.529 308.199C106.07 308.222 105.571 308.137 105.032 307.943L102.256 306.944ZM116.376 312.026L118.12 307.182L115.893 306.381L115.649 307.06C115.461 307.582 115.251 308.052 115.017 308.47C114.788 308.889 114.521 309.24 114.217 309.522C113.913 309.804 113.559 310.006 113.156 310.128C112.755 310.246 112.289 310.267 111.759 310.191L111.795 308.996C112.207 309.043 112.555 308.972 112.839 308.784C113.128 308.594 113.379 308.306 113.591 307.922C113.807 307.539 114.012 307.079 114.206 306.54L114.908 304.589L120.143 306.474L117.942 312.59L116.376 312.026ZM110.695 312.054L111.795 308.996L112.672 309.401L112.963 309.361L119.629 311.76L118.511 314.867L117.08 314.352L117.74 312.517L112.786 310.734L112.126 312.569L110.695 312.054ZM122.981 314.61C122.316 314.371 121.782 314.027 121.377 313.577C120.974 313.123 120.719 312.603 120.612 312.017C120.51 311.432 120.574 310.817 120.806 310.173C120.976 309.7 121.212 309.295 121.513 308.956C121.819 308.619 122.17 308.359 122.568 308.175C122.972 307.989 123.4 307.887 123.852 307.871C124.309 307.855 124.774 307.933 125.247 308.103C125.761 308.288 126.186 308.545 126.524 308.874C126.863 309.198 127.106 309.573 127.252 309.999C127.404 310.422 127.453 310.873 127.401 311.351C127.354 311.827 127.196 312.309 126.928 312.798L122.146 311.077C122.026 311.397 122 311.706 122.068 312.002C122.141 312.3 122.297 312.57 122.536 312.813C122.782 313.053 123.102 313.245 123.497 313.387C123.848 313.513 124.203 313.583 124.561 313.597C124.92 313.611 125.274 313.568 125.623 313.468L125.78 314.761C125.532 314.847 125.246 314.896 124.919 314.907C124.593 314.919 124.259 314.898 123.919 314.844C123.583 314.792 123.271 314.714 122.981 314.61ZM122.638 309.997L125.812 311.139C125.948 310.723 125.928 310.351 125.75 310.025C125.574 309.695 125.252 309.445 124.783 309.276C124.318 309.109 123.893 309.089 123.506 309.217C123.12 309.341 122.831 309.601 122.638 309.997ZM127.305 315.959L129.506 309.843L131.072 310.407L130.242 312.712L133.061 313.727L133.891 311.421L135.457 311.985L133.256 318.101L131.69 317.537L132.604 314.999L129.784 313.985L128.871 316.523L127.305 315.959ZM135.057 318.749L137.259 312.633L138.824 313.197L137.037 318.163L138.083 318.539C138.482 318.683 138.813 318.712 139.074 318.627C139.34 318.538 139.53 318.339 139.641 318.029C139.751 317.724 139.74 317.453 139.609 317.217C139.479 316.976 139.235 316.792 138.876 316.663L137.536 316.18L137.946 315.043L139.407 315.569C140.215 315.86 140.786 316.268 141.122 316.794C141.459 317.316 141.504 317.921 141.256 318.611C141.099 319.047 140.854 319.382 140.52 319.617C140.187 319.852 139.791 319.981 139.331 320.004C138.871 320.028 138.372 319.942 137.834 319.749L135.057 318.749ZM141.854 321.196L144.055 315.08L148.141 316.55L147.683 317.822L145.163 316.915L143.42 321.759L141.854 321.196ZM147.134 323.096L149.335 316.98L150.84 317.521L149.449 321.386L153.928 318.633L155.311 319.13L153.109 325.246L151.605 324.705L153.014 320.79L148.498 323.587L147.134 323.096Z" fill="#FDEAC3"/>
    <rect x="59.0563" y="170" width="180" height="24" rx="6" transform="rotate(7.31625 59.0563 170)" fill="#CC3355"/>
    <path d="M65.9674 188.027L67.1262 179.001L68.8024 179.216L68.3521 182.723L72.4525 183.25L72.9028 179.743L74.579 179.958L73.4202 188.984L71.7439 188.769L72.2555 184.784L68.1551 184.258L67.6436 188.242L65.9674 188.027ZM78.4677 189.828C77.7671 189.738 77.1707 189.518 76.6785 189.166C76.1868 188.81 75.8255 188.358 75.5946 187.808C75.368 187.259 75.2983 186.645 75.3855 185.966C75.4495 185.467 75.5921 185.02 75.8132 184.625C76.0387 184.23 76.3257 183.9 76.6743 183.635C77.0278 183.365 77.4238 183.174 77.8622 183.06C78.305 182.946 78.7756 182.921 79.2742 182.985C79.8157 183.055 80.2868 183.214 80.6875 183.462C81.0888 183.705 81.4067 184.019 81.6414 184.403C81.8809 184.784 82.0267 185.213 82.0789 185.692C82.1359 186.166 82.0864 186.671 81.9303 187.206L76.8887 186.559C76.8408 186.898 76.8823 187.204 77.013 187.479C77.1481 187.754 77.3588 187.984 77.6452 188.17C77.9365 188.351 78.2906 188.469 78.7075 188.522C79.0771 188.57 79.4386 188.562 79.7919 188.498C80.1453 188.434 80.4816 188.315 80.8009 188.142L81.233 189.371C81.01 189.508 80.7403 189.618 80.424 189.699C80.1077 189.781 79.7778 189.833 79.4343 189.854C79.095 189.876 78.7728 189.868 78.4677 189.828ZM77.1361 185.398L80.4821 185.827C80.5249 185.392 80.4246 185.034 80.1809 184.753C79.9379 184.469 79.5692 184.295 79.0749 184.231C78.5849 184.168 78.1649 184.241 77.8149 184.449C77.4653 184.654 77.2391 184.97 77.1361 185.398ZM89.0452 191.186C88.3618 191.099 87.7727 190.872 87.2778 190.507C86.7878 190.139 86.423 189.679 86.1835 189.128C85.9446 188.573 85.8671 187.969 85.9509 187.316C86.0144 186.822 86.1629 186.38 86.3964 185.99C86.6304 185.597 86.9304 185.268 87.2962 185.005C87.6626 184.737 88.0757 184.548 88.5356 184.437C89.0004 184.322 89.4928 184.297 90.0129 184.364C90.4642 184.422 90.8755 184.536 91.2469 184.706C91.6183 184.876 91.9491 185.106 92.2395 185.397L91.3125 186.543C91.1337 186.336 90.9209 186.174 90.674 186.055C90.432 185.932 90.1713 185.852 89.892 185.817C89.4707 185.762 89.0976 185.793 88.7726 185.909C88.4519 186.025 88.1911 186.219 87.9902 186.49C87.7894 186.761 87.6622 187.105 87.6087 187.522C87.5292 188.141 87.6474 188.65 87.9631 189.049C88.2838 189.444 88.7579 189.682 89.3854 189.762C89.6991 189.802 90.0031 189.782 90.2974 189.702C90.5917 189.622 90.8549 189.494 91.0872 189.319L91.6616 190.664C91.2755 190.881 90.8557 191.037 90.4023 191.131C89.9489 191.226 89.4965 191.244 89.0452 191.186ZM92.8153 191.474L93.6431 185.027L95.0614 185.209L95.1001 185.214L97.37 189.686L96.6592 189.608L99.8387 185.822L101.289 186.009L100.462 192.456L98.9852 192.266L99.5906 187.704L99.8899 187.873L97.3106 190.812L96.2856 190.681L94.4236 187.165L94.7496 187.076L94.1885 191.65L92.8153 191.474ZM105.32 193.276C104.632 193.188 104.042 192.955 103.549 192.577C103.06 192.195 102.699 191.727 102.464 191.173C102.23 190.614 102.153 190.025 102.232 189.406C102.291 188.951 102.433 188.528 102.657 188.137C102.882 187.747 103.172 187.415 103.526 187.141C103.885 186.864 104.291 186.663 104.744 186.537C105.197 186.408 105.682 186.376 106.198 186.442C106.881 186.53 107.467 186.762 107.956 187.14C108.449 187.518 108.813 187.986 109.047 188.545C109.285 189.104 109.365 189.693 109.285 190.312C109.227 190.767 109.083 191.19 108.854 191.58C108.63 191.966 108.34 192.298 107.985 192.576C107.631 192.854 107.227 193.058 106.773 193.187C106.32 193.313 105.836 193.342 105.32 193.276ZM105.499 191.831C105.864 191.878 106.199 191.84 106.503 191.717C106.812 191.591 107.067 191.392 107.268 191.121C107.469 190.845 107.596 190.506 107.648 190.102C107.7 189.698 107.663 189.337 107.538 189.019C107.413 188.702 107.218 188.445 106.955 188.25C106.692 188.054 106.378 187.933 106.012 187.886C105.647 187.839 105.31 187.877 105.002 187.999C104.697 188.122 104.445 188.321 104.243 188.596C104.046 188.872 103.922 189.212 103.87 189.617C103.818 190.021 103.855 190.381 103.98 190.699C104.106 191.012 104.3 191.269 104.563 191.468C104.826 191.664 105.138 191.785 105.499 191.831ZM110.23 193.71L111.058 187.263L115.364 187.816L115.192 189.157L112.536 188.816L111.88 193.922L110.23 193.71ZM116.304 197.425C116.05 197.393 115.804 197.333 115.566 197.246C115.329 197.158 115.104 197.038 114.892 196.884L115.439 195.532C115.562 195.631 115.702 195.712 115.86 195.776C116.018 195.84 116.163 195.881 116.297 195.898C116.572 195.933 116.803 195.897 116.992 195.79C117.18 195.688 117.337 195.505 117.462 195.241L117.702 194.748L116.013 187.899L117.812 188.13L118.858 193.146L121.093 188.551L122.84 188.775L119.159 195.702C118.886 196.199 118.599 196.58 118.298 196.843C117.998 197.11 117.68 197.285 117.346 197.369C117.016 197.454 116.669 197.472 116.304 197.425ZM126.159 195.755L126.987 189.308L128.637 189.52L128.325 191.95L131.297 192.332L131.609 189.901L133.26 190.113L132.432 196.56L130.781 196.348L131.125 193.673L128.153 193.291L127.809 195.967L126.159 195.755ZM136.098 197.228C135.66 197.171 135.282 197.038 134.964 196.826C134.646 196.615 134.41 196.345 134.255 196.015C134.102 195.68 134.052 195.303 134.106 194.881C134.152 194.52 134.284 194.21 134.501 193.949C134.718 193.689 135.025 193.49 135.423 193.353C135.821 193.212 136.314 193.146 136.903 193.156C137.496 193.167 138.187 193.264 138.976 193.449L138.861 194.542C138.348 194.393 137.895 194.297 137.502 194.256C137.11 194.214 136.78 194.218 136.511 194.266C136.247 194.315 136.042 194.402 135.895 194.528C135.752 194.654 135.668 194.811 135.644 195C135.607 195.284 135.682 195.516 135.869 195.697C136.056 195.874 136.328 195.986 136.685 196.032C136.99 196.071 137.27 196.05 137.525 195.969C137.784 195.889 137.998 195.757 138.165 195.573C138.334 195.385 138.436 195.151 138.472 194.872L138.681 193.241C138.716 192.97 138.688 192.728 138.597 192.516C138.512 192.299 138.359 192.122 138.141 191.985C137.923 191.844 137.632 191.749 137.267 191.702C136.931 191.659 136.592 191.668 136.247 191.729C135.908 191.786 135.581 191.901 135.266 192.075L134.972 190.838C135.416 190.619 135.87 190.481 136.336 190.423C136.803 190.365 137.246 190.363 137.668 190.417C138.269 190.494 138.777 190.656 139.191 190.901C139.61 191.147 139.912 191.481 140.098 191.902C140.289 192.32 140.346 192.827 140.27 193.425L139.747 197.499L138.289 197.312L138.384 196.577C138.131 196.846 137.805 197.038 137.406 197.153C137.007 197.263 136.571 197.288 136.098 197.228ZM141.571 197.734L142.399 191.287L143.985 191.49L143.462 195.565L147.241 191.908L148.698 192.095L147.87 198.542L146.284 198.339L146.814 194.213L143.009 197.918L141.571 197.734ZM145.678 190.659C145.179 190.595 144.756 190.44 144.407 190.194C144.059 189.944 143.805 189.63 143.643 189.251C143.487 188.873 143.444 188.454 143.516 187.996L144.877 188.171C144.816 188.539 144.87 188.849 145.039 189.103C145.212 189.352 145.473 189.499 145.821 189.544C146.169 189.588 146.456 189.512 146.683 189.314C146.914 189.112 147.043 188.825 147.069 188.452L148.435 188.628C148.39 189.081 148.24 189.472 147.983 189.802C147.732 190.128 147.406 190.368 147.006 190.522C146.606 190.676 146.163 190.721 145.678 190.659ZM151.155 198.964L151.81 193.858L149.78 193.597L149.952 192.256L155.664 192.99L155.492 194.331L153.461 194.07L152.805 199.176L151.155 198.964ZM156.09 199.598L156.918 193.151L158.504 193.354L157.98 197.429L161.759 193.772L163.216 193.959L162.389 200.406L160.803 200.203L161.332 196.077L157.528 199.782L156.09 199.598ZM171.627 201.593L169.975 197.92L172.377 195.136L174.131 195.361L171.759 198.064L173.593 201.845L171.627 201.593ZM167.385 201.048L168.213 194.601L169.863 194.813L169.551 197.243L171.498 197.493L171.326 198.834L169.379 198.584L169.035 201.26L167.385 201.048ZM174.605 202.106L174.234 200.558C174.686 200.502 175.029 200.371 175.261 200.165C175.492 199.959 175.662 199.655 175.771 199.254C175.879 198.853 175.974 198.334 176.056 197.698L176.32 195.642L181.709 196.334L180.882 202.781L179.231 202.569L179.887 197.463L177.669 197.178L177.577 197.894C177.491 198.569 177.38 199.157 177.246 199.66C177.111 200.163 176.932 200.585 176.709 200.928C176.49 201.271 176.209 201.539 175.866 201.731C175.526 201.923 175.106 202.048 174.605 202.106ZM182.785 203.025L183.613 196.578L185.199 196.782L184.675 200.856L188.454 197.2L189.911 197.387L189.084 203.834L187.498 203.63L188.027 199.504L184.223 203.21L182.785 203.025ZM193.936 204.653C193.235 204.564 192.639 204.343 192.147 203.991C191.655 203.635 191.294 203.183 191.063 202.633C190.836 202.084 190.766 201.47 190.854 200.791C190.918 200.292 191.06 199.845 191.281 199.45C191.507 199.055 191.794 198.725 192.143 198.46C192.496 198.19 192.892 197.999 193.33 197.885C193.773 197.771 194.244 197.746 194.742 197.81C195.284 197.88 195.755 198.039 196.156 198.287C196.557 198.531 196.875 198.844 197.11 199.228C197.349 199.609 197.495 200.038 197.547 200.517C197.604 200.991 197.555 201.496 197.399 202.031L192.357 201.384C192.309 201.723 192.35 202.03 192.481 202.304C192.616 202.579 192.827 202.809 193.113 202.995C193.405 203.176 193.759 203.294 194.176 203.347C194.545 203.395 194.907 203.387 195.26 203.323C195.613 203.259 195.95 203.14 196.269 202.967L196.701 204.196C196.478 204.333 196.209 204.443 195.892 204.525C195.576 204.606 195.246 204.658 194.902 204.679C194.563 204.701 194.241 204.693 193.936 204.653ZM192.604 200.223L195.95 200.652C195.993 200.217 195.893 199.859 195.649 199.578C195.406 199.294 195.037 199.12 194.543 199.056C194.053 198.993 193.633 199.066 193.283 199.275C192.934 199.479 192.707 199.795 192.604 200.223ZM198.449 205.036L199.277 198.589L200.927 198.801L200.615 201.232L203.587 201.613L203.899 199.183L205.55 199.395L204.722 205.842L203.072 205.63L203.415 202.954L200.443 202.573L200.1 205.248L198.449 205.036ZM208.007 206.264L208.663 201.157L206.632 200.897L206.804 199.556L212.517 200.289L212.344 201.63L210.314 201.369L209.658 206.475L208.007 206.264ZM215.903 207.474C215.215 207.386 214.625 207.152 214.131 206.775C213.643 206.393 213.281 205.925 213.047 205.371C212.813 204.812 212.735 204.223 212.815 203.604C212.873 203.148 213.015 202.725 213.24 202.335C213.465 201.944 213.754 201.612 214.108 201.339C214.467 201.062 214.873 200.86 215.326 200.735C215.78 200.605 216.264 200.574 216.78 200.64C217.463 200.728 218.05 200.96 218.539 201.338C219.032 201.715 219.395 202.184 219.63 202.742C219.868 203.302 219.947 203.891 219.868 204.51C219.809 204.965 219.666 205.388 219.436 205.778C219.212 206.164 218.923 206.496 218.568 206.774C218.213 207.052 217.809 207.256 217.356 207.385C216.903 207.51 216.418 207.54 215.903 207.474ZM216.082 206.029C216.447 206.076 216.782 206.038 217.086 205.915C217.395 205.789 217.65 205.59 217.85 205.319C218.052 205.043 218.179 204.703 218.23 204.299C218.282 203.895 218.246 203.535 218.12 203.217C217.995 202.9 217.801 202.643 217.538 202.448C217.274 202.252 216.96 202.131 216.595 202.084C216.229 202.037 215.892 202.075 215.584 202.197C215.28 202.319 215.027 202.518 214.826 202.794C214.629 203.07 214.504 203.41 214.452 203.814C214.401 204.218 214.437 204.579 214.562 204.897C214.688 205.21 214.883 205.466 215.145 205.666C215.408 205.862 215.721 205.982 216.082 206.029ZM220.812 207.908L221.64 201.461L224.819 201.869C225.562 201.964 226.133 202.179 226.531 202.514C226.934 202.846 227.1 203.289 227.029 203.843C226.994 204.118 226.894 204.35 226.73 204.539C226.567 204.723 226.358 204.867 226.105 204.97C225.852 205.068 225.571 205.126 225.263 205.143L225.285 204.773C225.865 204.917 226.301 205.163 226.592 205.511C226.885 205.854 227 206.262 226.94 206.735C226.888 207.135 226.741 207.465 226.498 207.727C226.259 207.989 225.936 208.172 225.529 208.277C225.123 208.382 224.646 208.4 224.101 208.33L220.812 207.908ZM222.549 206.938L224.032 207.128C224.414 207.177 224.717 207.151 224.94 207.048C225.163 206.941 225.291 206.761 225.324 206.508C225.356 206.258 225.277 206.056 225.087 205.901C224.902 205.746 224.616 205.643 224.229 205.594L222.559 205.379L222.703 204.258L224.218 204.452C224.579 204.499 224.866 204.479 225.078 204.392C225.291 204.301 225.413 204.132 225.445 203.882C225.477 203.629 225.4 203.431 225.213 203.289C225.03 203.147 224.76 203.054 224.404 203.008L223.076 202.838L222.549 206.938Z" fill="#FDEAC3"/>
</svg>
