<svg width="100" height="62" viewBox="0 0 100 62" fill="none" xmlns="http://www.w3.org/2000/svg">
    <path d="M5.3816 33.0996L35.8829 18.5997C33.2162 15.433 27.2829 8.39961 24.8829 5.59961C22.4829 2.79961 23.8829 2.09966 24.8829 2.09968C47.7163 1.59968 94.0829 0.69968 96.8829 1.09968C99.6829 1.49968 99.3829 3.26635 98.8829 4.09968C84.3829 21.433 56.4828 55.3996 52.8828 58.5996C49.2828 61.7996 47.3828 60.5996 46.8829 58.5997L44.3829 37.0997C36.7163 40.933 19.9829 49.1997 14.3829 51.5997C8.78292 53.9997 7.88286 53.0996 6.88292 51.5997C5.8829 49.2663 3.48409 43.6991 1.88286 40.0997C-0.118928 35.5998 1.38278 35.0996 5.3816 33.0996Z" stroke="#E8F879"/>
</svg>
