<svg width="14" height="16" viewBox="0 0 14 16" fill="none" xmlns="http://www.w3.org/2000/svg">
    <g clip-path="url(#clip0_71_614)">
        <path d="M6.99959 15.1528C3.24759 15.1528 0.433594 12.2408 0.433594 8.6848C0.433594 5.1288 3.24759 2.2168 6.99959 2.2168C10.7516 2.2168 13.5656 5.1288 13.5656 8.6848C13.5656 12.2408 10.7516 15.1528 6.99959 15.1528ZM6.99959 13.8928C9.95359 13.8928 12.1656 11.5408 12.1656 8.6848C12.1656 5.8288 9.95359 3.4768 6.99959 3.4768C4.04559 3.4768 1.83359 5.8288 1.83359 8.6848C1.83359 11.5408 4.04559 13.8928 6.99959 13.8928ZM7.06959 12.3808C4.68959 12.3808 3.51359 10.7288 3.51359 8.7268C3.51359 6.7248 4.82959 5.0868 7.06959 5.0868C9.26759 5.0868 9.74359 6.3748 9.74359 6.3748V7.2848H8.83359C8.83359 7.2848 8.55359 6.2768 7.06959 6.2768C5.59959 6.2768 4.91359 7.3828 4.91359 8.7268C4.91359 10.0848 5.59959 11.1908 7.06959 11.1908C8.62359 11.1908 8.84759 10.1828 8.84759 10.1828H9.75759V11.0928C9.75759 11.0928 9.25359 12.3808 7.06959 12.3808Z" fill="currentColor"/>
    </g>
    <defs>
        <clipPath id="clip0_71_614">
            <rect width="14" height="15" fill="white" transform="translate(0 0.152832)"/>
        </clipPath>
    </defs>
</svg>
