<svg width="300" height="41" viewBox="0 0 300 41" fill="none" xmlns="http://www.w3.org/2000/svg">
    <path d="M166.633 15.0818C166.633 9.75211 168.077 5.91553 170.966 3.57199C173.854 1.19066 177.98 0 183.345 0C188.634 0 192.723 1.09617 195.611 3.2885C198.537 5.48084 200 9.10953 200 14.1746V15.7621H174.623V16.8961C174.623 19.6176 175.355 21.6021 176.817 22.8494C178.318 24.059 180.494 24.6638 183.345 24.6638C185.82 24.6638 187.734 24.3236 189.084 23.6432C190.472 22.925 191.41 21.8289 191.897 20.3547H199.831C199.043 23.7188 197.243 26.1757 194.429 27.7255C191.654 29.2752 187.959 30.0501 183.345 30.0501C177.98 30.0501 173.854 28.9162 170.966 26.6482C168.077 24.3425 166.633 20.487 166.633 15.0818ZM183.345 5.27294C180.756 5.27294 178.693 5.76433 177.155 6.7471C175.617 7.69207 174.773 9.29852 174.623 11.5665H192.066C191.954 9.29852 191.185 7.69207 189.759 6.7471C188.371 5.76433 186.233 5.27294 183.345 5.27294Z" fill="#E6F771"/>
    <path d="M114.251 0.737305H122.354V23.3032H133.382V0.737305H141.485V23.3032H152.57V0.737305H160.672V29.3133H114.251V0.737305Z" fill="#E6F771"/>
    <path d="M98.4849 18.8241C97.247 18.9753 95.8778 19.1076 94.3773 19.221C92.8768 19.3344 91.3388 19.3911 89.7633 19.3911C84.6617 19.3911 80.9855 18.5028 78.7347 16.7262C76.484 14.9497 75.3586 11.8124 75.3586 7.31431V0.737305H83.4613V6.91742C83.4613 9.48775 84.099 11.2076 85.3744 12.077C86.6873 12.9463 88.863 13.381 91.9015 13.381C93.0644 13.381 94.2273 13.3432 95.3902 13.2676C96.5905 13.1542 97.6221 13.0408 98.4849 12.9274V0.737305H106.588V29.3133H98.4849V18.8241Z" fill="#E6F771"/>
    <path d="M41.7833 34.7563H45.3282C47.0537 34.7563 48.3292 34.5106 49.1544 34.0192C49.9797 33.5278 50.7675 32.4884 51.5177 30.9008L52.0804 29.6535L37.5069 0.737305H45.9471L56.0754 21.3755L65.9224 0.737305H73.3498L58.2136 32.3183C56.7131 35.4178 55.1376 37.5723 53.4871 38.7819C51.8366 40.0292 49.492 40.6529 46.4536 40.6529H41.7833V34.7563Z" fill="#E6F771"/>
    <path d="M0 29.3133V22.5095H0.844024C1.74432 22.5095 2.49456 22.3772 3.09476 22.1126C3.73246 21.848 4.22012 21.3566 4.55773 20.6384C4.93285 19.9202 5.19544 18.9375 5.34549 17.6901C5.49554 16.4049 5.57056 14.7796 5.57056 12.814V0.737305H33.761V29.3133H25.6021V6.74733H12.998V12.9841C12.998 16.1592 12.8104 18.8052 12.4353 20.9219C12.0977 23.0008 11.4975 24.664 10.6347 25.9114C9.77192 27.1587 8.60905 28.047 7.14607 28.5762C5.72061 29.0676 3.93878 29.3133 1.80058 29.3133H0Z" fill="#E6F771"/>
    <path d="M289.066 25.0372C289.066 24.0655 289.381 23.3121 290.012 22.7769C290.643 22.2277 291.737 21.9179 293.294 21.8474L297.825 21.6784V21.3405C297.825 20.3969 297.563 19.7209 297.04 19.3125C296.53 18.89 295.744 18.6788 294.684 18.6788C293.825 18.6788 293.127 18.8126 292.59 19.0802C292.066 19.3336 291.73 19.7843 291.583 20.4321H289.408C289.569 19.3477 290.086 18.5309 290.958 17.9817C291.831 17.4184 293.073 17.1367 294.684 17.1367C296.469 17.1367 297.798 17.4747 298.671 18.1507C299.557 18.8126 300 19.8758 300 21.3405V27.9101H297.926V26.0089C297.55 26.699 296.953 27.2341 296.134 27.6144C295.328 27.9805 294.355 28.1636 293.214 28.1636C291.737 28.1636 290.677 27.8819 290.032 27.3186C289.388 26.7553 289.066 25.9948 289.066 25.0372ZM291.261 25.0161C291.261 25.5371 291.462 25.9315 291.865 26.199C292.267 26.4666 292.898 26.6004 293.758 26.6004C294.308 26.6004 294.832 26.5441 295.328 26.4314C295.825 26.3187 296.255 26.1427 296.617 25.9033C296.993 25.6498 297.288 25.3259 297.503 24.9316C297.718 24.5373 297.825 24.0514 297.825 23.474V23.0093L293.737 23.1783C292.892 23.2205 292.267 23.3613 291.865 23.6008C291.462 23.8402 291.261 24.2345 291.261 24.7837V25.0161Z" fill="#909FAD"/>
    <path d="M277.011 27.9101V21.4461C277.011 20.3617 276.776 19.6435 276.306 19.2914C275.836 18.9393 275.192 18.7633 274.373 18.7633C273.541 18.7633 272.849 18.9675 272.299 19.3759C271.749 19.7843 271.473 20.4955 271.473 21.5095V27.9101H269.299V17.3691H271.393V19.2491C271.715 18.5309 272.218 18.0028 272.903 17.6648C273.601 17.3128 274.36 17.1367 275.179 17.1367C276.132 17.1367 276.924 17.3128 277.555 17.6648C278.186 18.0028 278.636 18.552 278.904 19.3125C279.213 18.5802 279.723 18.038 280.434 17.686C281.159 17.3198 281.978 17.1367 282.891 17.1367C284.207 17.1367 285.2 17.4677 285.872 18.1296C286.556 18.7774 286.899 19.8265 286.899 21.2771V27.9101H284.724V21.4461C284.724 20.3617 284.482 19.6435 283.999 19.2914C283.529 18.9393 282.884 18.7633 282.066 18.7633C281.26 18.7633 280.575 18.9605 280.012 19.3548C279.461 19.7491 279.186 20.4673 279.186 21.5095V27.9101H277.011Z" fill="#909FAD"/>
    <path d="M255.516 25.0372C255.516 24.0655 255.831 23.3121 256.462 22.7769C257.093 22.2277 258.187 21.9179 259.744 21.8474L264.275 21.6784V21.3405C264.275 20.3969 264.014 19.7209 263.49 19.3125C262.98 18.89 262.194 18.6788 261.134 18.6788C260.275 18.6788 259.577 18.8126 259.04 19.0802C258.516 19.3336 258.18 19.7843 258.033 20.4321H255.858C256.019 19.3477 256.536 18.5309 257.409 17.9817C258.281 17.4184 259.523 17.1367 261.134 17.1367C262.919 17.1367 264.248 17.4747 265.121 18.1507C266.007 18.8126 266.45 19.8758 266.45 21.3405V27.9101H264.376V26.0089C264 26.699 263.403 27.2341 262.584 27.6144C261.778 27.9805 260.805 28.1636 259.664 28.1636C258.187 28.1636 257.127 27.8819 256.482 27.3186C255.838 26.7553 255.516 25.9948 255.516 25.0372ZM257.711 25.0161C257.711 25.5371 257.912 25.9315 258.315 26.199C258.717 26.4666 259.348 26.6004 260.208 26.6004C260.758 26.6004 261.282 26.5441 261.778 26.4314C262.275 26.3187 262.705 26.1427 263.067 25.9033C263.443 25.6498 263.738 25.3259 263.953 24.9316C264.168 24.5373 264.275 24.0514 264.275 23.474V23.0093L260.187 23.1783C259.342 23.2205 258.717 23.3613 258.315 23.6008C257.912 23.8402 257.711 24.2345 257.711 24.7837V25.0161Z" fill="#909FAD"/>
    <path d="M251.048 12.4897H253.222V27.9105H251.048V12.4897Z" fill="#909FAD"/>
    <path d="M237.464 22.6502C237.464 20.6926 237.954 19.2844 238.934 18.4253C239.927 17.5662 241.317 17.1367 243.102 17.1367C244.901 17.1367 246.291 17.5451 247.271 18.3619C248.264 19.1647 248.761 20.4673 248.761 22.2699V22.8192H239.618V23.2628C239.618 24.4035 239.914 25.2414 240.504 25.7766C241.109 26.3117 241.974 26.5793 243.102 26.5793C244.055 26.5793 244.807 26.4385 245.358 26.1568C245.921 25.8611 246.304 25.4104 246.505 24.8048H248.66C248.365 25.9596 247.74 26.8116 246.787 27.3609C245.834 27.896 244.606 28.1636 243.102 28.1636C241.317 28.1636 239.927 27.7411 238.934 26.8961C237.954 26.0371 237.464 24.6218 237.464 22.6502ZM243.102 18.6788C242.095 18.6788 241.276 18.8971 240.645 19.3336C240.014 19.7561 239.672 20.4814 239.618 21.5095H246.606C246.552 20.4814 246.237 19.7561 245.66 19.3336C245.082 18.8971 244.23 18.6788 243.102 18.6788Z" fill="#909FAD"/>
    <path d="M220 22.6713C220 20.7419 220.47 19.3407 221.41 18.4676C222.363 17.5803 223.799 17.1367 225.719 17.1367C227.303 17.1367 228.552 17.4113 229.464 17.9606C230.391 18.4957 230.941 19.3548 231.116 20.5377H228.921C228.746 19.8899 228.404 19.4322 227.894 19.1647C227.397 18.883 226.672 18.7422 225.719 18.7422C224.511 18.7422 223.625 19.0027 223.061 19.5238C222.497 20.0307 222.215 20.8616 222.215 22.0164V23.2839C222.215 24.4809 222.517 25.3259 223.121 25.8188C223.725 26.2976 224.591 26.537 225.719 26.537C226.712 26.537 227.457 26.3892 227.954 26.0934C228.451 25.7836 228.787 25.347 228.961 24.7837H231.156C230.955 25.8963 230.404 26.7412 229.505 27.3186C228.605 27.8819 227.343 28.1636 225.719 28.1636C223.866 28.1636 222.45 27.7622 221.47 26.9595C220.49 26.1427 220 24.7133 220 22.6713Z" fill="#909FAD"/>
</svg>
